<svg xmlns="http://www.w3.org/2000/svg" xmlns:xlink="http://www.w3.org/1999/xlink" width="600" height="400" viewBox="0 0 2400 1600">
<defs>
  <clipPath id="clip940">
    <rect x="0" y="0" width="2400" height="1600"></rect>
  </clipPath>
</defs>
<path clip-path="url(#clip940)" d="M0 1600 L2400 1600 L2400 8.88178e-14 L0 8.88178e-14  Z" fill="#ffffff" fill-rule="evenodd" fill-opacity="1"></path>
<defs>
  <clipPath id="clip941">
    <rect x="480" y="0" width="1681" height="1600"></rect>
  </clipPath>
</defs>
<path clip-path="url(#clip940)" d="M138.959 1423.18 L2352.76 1423.18 L2352.76 47.2441 L138.959 47.2441  Z" fill="#ffffff" fill-rule="evenodd" fill-opacity="1"></path>
<defs>
  <clipPath id="clip942">
    <rect x="138" y="47" width="2215" height="1377"></rect>
  </clipPath>
</defs>
<polyline clip-path="url(#clip942)" style="stroke:#000000; stroke-linecap:round; stroke-linejoin:round; stroke-width:2; stroke-opacity:0.1; fill:none" points="457.749,1423.18 457.749,47.2441 "></polyline>
<polyline clip-path="url(#clip942)" style="stroke:#000000; stroke-linecap:round; stroke-linejoin:round; stroke-width:2; stroke-opacity:0.1; fill:none" points="950.317,1423.18 950.317,47.2441 "></polyline>
<polyline clip-path="url(#clip942)" style="stroke:#000000; stroke-linecap:round; stroke-linejoin:round; stroke-width:2; stroke-opacity:0.1; fill:none" points="1442.88,1423.18 1442.88,47.2441 "></polyline>
<polyline clip-path="url(#clip942)" style="stroke:#000000; stroke-linecap:round; stroke-linejoin:round; stroke-width:2; stroke-opacity:0.1; fill:none" points="1935.45,1423.18 1935.45,47.2441 "></polyline>
<polyline clip-path="url(#clip940)" style="stroke:#000000; stroke-linecap:round; stroke-linejoin:round; stroke-width:4; stroke-opacity:1; fill:none" points="138.959,1423.18 2352.76,1423.18 "></polyline>
<polyline clip-path="url(#clip940)" style="stroke:#000000; stroke-linecap:round; stroke-linejoin:round; stroke-width:4; stroke-opacity:1; fill:none" points="457.749,1423.18 457.749,1404.28 "></polyline>
<polyline clip-path="url(#clip940)" style="stroke:#000000; stroke-linecap:round; stroke-linejoin:round; stroke-width:4; stroke-opacity:1; fill:none" points="950.317,1423.18 950.317,1404.28 "></polyline>
<polyline clip-path="url(#clip940)" style="stroke:#000000; stroke-linecap:round; stroke-linejoin:round; stroke-width:4; stroke-opacity:1; fill:none" points="1442.88,1423.18 1442.88,1404.28 "></polyline>
<polyline clip-path="url(#clip940)" style="stroke:#000000; stroke-linecap:round; stroke-linejoin:round; stroke-width:4; stroke-opacity:1; fill:none" points="1935.45,1423.18 1935.45,1404.28 "></polyline>
<path clip-path="url(#clip940)" d="M432.437 1481.64 L440.076 1481.64 L440.076 1455.28 L431.766 1456.95 L431.766 1452.69 L440.029 1451.02 L444.705 1451.02 L444.705 1481.64 L452.344 1481.64 L452.344 1485.58 L432.437 1485.58 L432.437 1481.64 Z" fill="#000000" fill-rule="nonzero" fill-opacity="1"></path><path clip-path="url(#clip940)" d="M471.789 1454.1 Q468.177 1454.1 466.349 1457.66 Q464.543 1461.2 464.543 1468.33 Q464.543 1475.44 466.349 1479.01 Q468.177 1482.55 471.789 1482.55 Q475.423 1482.55 477.228 1479.01 Q479.057 1475.44 479.057 1468.33 Q479.057 1461.2 477.228 1457.66 Q475.423 1454.1 471.789 1454.1 M471.789 1450.39 Q477.599 1450.39 480.654 1455 Q483.733 1459.58 483.733 1468.33 Q483.733 1477.06 480.654 1481.67 Q477.599 1486.25 471.789 1486.25 Q465.978 1486.25 462.9 1481.67 Q459.844 1477.06 459.844 1468.33 Q459.844 1459.58 462.9 1455 Q465.978 1450.39 471.789 1450.39 Z" fill="#000000" fill-rule="nonzero" fill-opacity="1"></path><path clip-path="url(#clip940)" d="M929.09 1481.64 L945.41 1481.64 L945.41 1485.58 L923.465 1485.58 L923.465 1481.64 Q926.127 1478.89 930.711 1474.26 Q935.317 1469.61 936.498 1468.27 Q938.743 1465.74 939.623 1464.01 Q940.525 1462.25 940.525 1460.56 Q940.525 1457.8 938.581 1456.07 Q936.66 1454.33 933.558 1454.33 Q931.359 1454.33 928.905 1455.09 Q926.475 1455.86 923.697 1457.41 L923.697 1452.69 Q926.521 1451.55 928.975 1450.97 Q931.428 1450.39 933.465 1450.39 Q938.836 1450.39 942.03 1453.08 Q945.224 1455.77 945.224 1460.26 Q945.224 1462.39 944.414 1464.31 Q943.627 1466.2 941.521 1468.8 Q940.942 1469.47 937.84 1472.69 Q934.738 1475.88 929.09 1481.64 Z" fill="#000000" fill-rule="nonzero" fill-opacity="1"></path><path clip-path="url(#clip940)" d="M965.224 1454.1 Q961.613 1454.1 959.785 1457.66 Q957.979 1461.2 957.979 1468.33 Q957.979 1475.44 959.785 1479.01 Q961.613 1482.55 965.224 1482.55 Q968.859 1482.55 970.664 1479.01 Q972.493 1475.44 972.493 1468.33 Q972.493 1461.2 970.664 1457.66 Q968.859 1454.1 965.224 1454.1 M965.224 1450.39 Q971.035 1450.39 974.09 1455 Q977.169 1459.58 977.169 1468.33 Q977.169 1477.06 974.09 1481.67 Q971.035 1486.25 965.224 1486.25 Q959.414 1486.25 956.336 1481.67 Q953.28 1477.06 953.28 1468.33 Q953.28 1459.58 956.336 1455 Q959.414 1450.39 965.224 1450.39 Z" fill="#000000" fill-rule="nonzero" fill-opacity="1"></path><path clip-path="url(#clip940)" d="M1431.73 1466.95 Q1435.08 1467.66 1436.96 1469.93 Q1438.86 1472.2 1438.86 1475.53 Q1438.86 1480.65 1435.34 1483.45 Q1431.82 1486.25 1425.34 1486.25 Q1423.16 1486.25 1420.85 1485.81 Q1418.56 1485.39 1416.1 1484.54 L1416.1 1480.02 Q1418.05 1481.16 1420.36 1481.74 Q1422.68 1482.32 1425.2 1482.32 Q1429.6 1482.32 1431.89 1480.58 Q1434.2 1478.84 1434.2 1475.53 Q1434.2 1472.48 1432.05 1470.77 Q1429.92 1469.03 1426.1 1469.03 L1422.07 1469.03 L1422.07 1465.19 L1426.29 1465.19 Q1429.74 1465.19 1431.57 1463.82 Q1433.39 1462.43 1433.39 1459.84 Q1433.39 1457.18 1431.5 1455.77 Q1429.62 1454.33 1426.1 1454.33 Q1424.18 1454.33 1421.98 1454.75 Q1419.78 1455.16 1417.14 1456.04 L1417.14 1451.88 Q1419.81 1451.14 1422.12 1450.77 Q1424.46 1450.39 1426.52 1450.39 Q1431.84 1450.39 1434.94 1452.83 Q1438.05 1455.23 1438.05 1459.35 Q1438.05 1462.22 1436.4 1464.21 Q1434.76 1466.18 1431.73 1466.95 Z" fill="#000000" fill-rule="nonzero" fill-opacity="1"></path><path clip-path="url(#clip940)" d="M1457.72 1454.1 Q1454.11 1454.1 1452.28 1457.66 Q1450.48 1461.2 1450.48 1468.33 Q1450.48 1475.44 1452.28 1479.01 Q1454.11 1482.55 1457.72 1482.55 Q1461.36 1482.55 1463.16 1479.01 Q1464.99 1475.44 1464.99 1468.33 Q1464.99 1461.2 1463.16 1457.66 Q1461.36 1454.1 1457.72 1454.1 M1457.72 1450.39 Q1463.53 1450.39 1466.59 1455 Q1469.67 1459.58 1469.67 1468.33 Q1469.67 1477.06 1466.59 1481.67 Q1463.53 1486.25 1457.72 1486.25 Q1451.91 1486.25 1448.83 1481.67 Q1445.78 1477.06 1445.78 1468.33 Q1445.78 1459.58 1448.83 1455 Q1451.91 1450.39 1457.72 1450.39 Z" fill="#000000" fill-rule="nonzero" fill-opacity="1"></path><path clip-path="url(#clip940)" d="M1923.62 1455.09 L1911.82 1473.54 L1923.62 1473.54 L1923.62 1455.09 M1922.4 1451.02 L1928.28 1451.02 L1928.28 1473.54 L1933.21 1473.54 L1933.21 1477.43 L1928.28 1477.43 L1928.28 1485.58 L1923.62 1485.58 L1923.62 1477.43 L1908.02 1477.43 L1908.02 1472.92 L1922.4 1451.02 Z" fill="#000000" fill-rule="nonzero" fill-opacity="1"></path><path clip-path="url(#clip940)" d="M1950.94 1454.1 Q1947.33 1454.1 1945.5 1457.66 Q1943.69 1461.2 1943.69 1468.33 Q1943.69 1475.44 1945.5 1479.01 Q1947.33 1482.55 1950.94 1482.55 Q1954.57 1482.55 1956.38 1479.01 Q1958.21 1475.44 1958.21 1468.33 Q1958.21 1461.2 1956.38 1457.66 Q1954.57 1454.1 1950.94 1454.1 M1950.94 1450.39 Q1956.75 1450.39 1959.8 1455 Q1962.88 1459.58 1962.88 1468.33 Q1962.88 1477.06 1959.8 1481.67 Q1956.75 1486.25 1950.94 1486.25 Q1945.13 1486.25 1942.05 1481.67 Q1938.99 1477.06 1938.99 1468.33 Q1938.99 1459.58 1942.05 1455 Q1945.13 1450.39 1950.94 1450.39 Z" fill="#000000" fill-rule="nonzero" fill-opacity="1"></path><path clip-path="url(#clip940)" d="M1015.48 1553.55 L1009.81 1569.98 L955.127 1569.98 Q954.386 1569.98 954.096 1569.95 Q953.806 1569.91 953.581 1569.75 Q953.356 1569.59 953.356 1569.24 Q953.356 1568.95 953.935 1568.21 L977.349 1539.25 L953.291 1506.15 Q953.291 1504.63 953.549 1504.34 Q953.806 1504.02 955.127 1504.02 L1009.81 1504.02 L1015.48 1519.45 L1013.84 1519.45 Q1013.1 1517.45 1011.91 1515.78 Q1010.75 1514.07 1009.39 1512.84 Q1008.07 1511.62 1006.33 1510.65 Q1004.63 1509.66 1003.02 1509.04 Q1001.44 1508.4 999.474 1507.95 Q997.51 1507.47 995.932 1507.24 Q994.386 1506.98 992.453 1506.85 Q990.521 1506.73 989.297 1506.69 Q988.073 1506.66 986.528 1506.66 L960.409 1506.66 L981.826 1536.07 Q982.309 1536.81 982.309 1537 Q982.309 1537.29 981.697 1538.06 L958.831 1566.34 L986.85 1566.34 Q995.867 1566.34 1002.15 1564.44 Q1006.4 1562.99 1009.49 1560.12 Q1012.61 1557.26 1013.84 1553.55 L1015.48 1553.55 Z" fill="#000000" fill-rule="nonzero" fill-opacity="1"></path><path clip-path="url(#clip940)" d="M1060.8 1537 Q1060.8 1525.86 1064.95 1516.87 Q1066.73 1513.1 1069.21 1509.95 Q1071.69 1506.79 1073.33 1505.41 Q1074.97 1504.02 1075.42 1504.02 Q1076.07 1504.02 1076.1 1504.66 Q1076.1 1504.99 1075.23 1505.79 Q1064.6 1516.61 1064.63 1537 Q1064.63 1557.45 1074.97 1567.85 Q1076.1 1568.98 1076.1 1569.33 Q1076.1 1569.98 1075.42 1569.98 Q1074.97 1569.98 1073.39 1568.66 Q1071.81 1567.34 1069.37 1564.31 Q1066.92 1561.28 1065.15 1557.58 Q1060.8 1548.59 1060.8 1537 Z" fill="#000000" fill-rule="nonzero" fill-opacity="1"></path><path clip-path="url(#clip940)" d="M1087.45 1567.95 L1087.45 1506.53 Q1087.45 1504.08 1088.77 1504.08 Q1090.09 1504.08 1090.09 1506.05 L1090.09 1567.47 Q1090.09 1569.91 1088.77 1569.91 Q1087.45 1569.91 1087.45 1567.95 Z" fill="#000000" fill-rule="nonzero" fill-opacity="1"></path><path clip-path="url(#clip940)" d="M1148.59 1544.05 Q1147.75 1548.21 1146.62 1550.59 Q1144.78 1554.23 1141.73 1554.23 Q1139.6 1554.23 1137.99 1553.04 Q1136.41 1551.81 1135.86 1549.78 Q1135.25 1550.59 1134.7 1551.14 Q1134.19 1551.68 1133.19 1552.52 Q1132.19 1553.33 1130.84 1553.78 Q1129.52 1554.23 1128.01 1554.23 Q1126.85 1554.23 1125.78 1554 Q1124.72 1553.81 1123.59 1553.26 Q1122.5 1552.68 1121.69 1551.81 Q1120.92 1550.94 1120.41 1549.53 Q1119.89 1548.11 1119.89 1546.31 Q1119.89 1544.05 1120.76 1540.99 Q1121.66 1537.93 1123.72 1532.46 Q1124.85 1529.56 1124.85 1527.95 Q1124.85 1527.21 1124.69 1526.73 Q1124.53 1526.24 1124.21 1526.08 Q1123.92 1525.89 1123.72 1525.86 Q1123.53 1525.79 1123.21 1525.79 Q1121.21 1525.79 1119.47 1527.82 Q1117.73 1529.85 1116.54 1533.97 Q1116.28 1534.78 1116.12 1534.97 Q1115.96 1535.16 1115.48 1535.16 Q1114.67 1535.13 1114.67 1534.49 Q1114.67 1534.23 1114.96 1533.23 Q1115.25 1532.2 1115.93 1530.69 Q1116.64 1529.14 1117.6 1527.76 Q1118.57 1526.34 1120.08 1525.34 Q1121.63 1524.34 1123.4 1524.34 Q1125.82 1524.34 1127.3 1525.92 Q1128.81 1527.47 1128.81 1529.75 Q1128.81 1531.17 1127.68 1533.91 Q1124.11 1543.41 1124.11 1547.37 Q1124.11 1552.75 1128.2 1552.75 Q1129.55 1552.75 1130.81 1552.2 Q1132.1 1551.65 1132.93 1550.88 Q1133.77 1550.11 1134.41 1549.27 Q1135.09 1548.43 1135.38 1547.88 Q1135.7 1547.34 1135.74 1547.21 L1140.66 1527.37 Q1140.86 1526.6 1141.21 1526.08 Q1141.6 1525.53 1142.05 1525.34 Q1142.5 1525.15 1142.76 1525.12 Q1143.01 1525.05 1143.24 1525.05 Q1144.04 1525.05 1144.59 1525.53 Q1145.17 1526.02 1145.17 1526.85 Q1145.17 1527.02 1144.98 1527.79 Q1144.82 1528.53 1144.56 1529.62 Q1144.3 1530.69 1144.17 1531.27 Q1143.14 1535.32 1143.05 1535.74 L1141.21 1542.86 Q1141.11 1543.28 1140.79 1544.63 Q1140.5 1545.98 1140.34 1546.69 Q1140.18 1547.37 1140.02 1548.3 Q1139.89 1549.21 1139.89 1549.72 Q1139.89 1551.33 1140.37 1552.04 Q1140.86 1552.75 1141.92 1552.75 Q1142.92 1552.75 1143.69 1552.07 Q1144.5 1551.36 1145.11 1550.01 Q1145.72 1548.63 1146.07 1547.5 Q1146.43 1546.37 1146.88 1544.6 Q1147.04 1543.83 1147.17 1543.63 Q1147.33 1543.41 1147.78 1543.41 Q1148.59 1543.41 1148.59 1544.05 Z" fill="#000000" fill-rule="nonzero" fill-opacity="1"></path><path clip-path="url(#clip940)" d="M1176.66 1542.59 Q1176.66 1543.02 1176.48 1543.22 Q1176.32 1543.41 1176.08 1543.45 Q1175.83 1543.47 1175.17 1543.47 Q1174.07 1543.47 1173.37 1543.56 Q1172.67 1543.63 1172.24 1543.74 Q1171.82 1543.83 1171.57 1544.15 Q1171.34 1544.44 1171.23 1544.71 Q1171.14 1544.98 1170.98 1545.59 L1164.8 1570.19 Q1164.6 1570.91 1164.6 1571.27 Q1164.6 1571.65 1164.83 1571.81 Q1165.05 1571.97 1165.77 1572.04 Q1166.92 1572.15 1167.76 1572.15 Q1168.86 1572.15 1169.02 1572.31 Q1169.13 1572.46 1169.13 1572.69 Q1169.13 1573.1 1168.95 1573.32 Q1168.77 1573.52 1168.61 1573.55 Q1168.48 1573.57 1168.21 1573.57 L1162.03 1573.43 L1155.97 1573.57 Q1155.29 1573.57 1155.29 1573.05 Q1155.29 1572.71 1155.34 1572.53 Q1155.4 1572.33 1155.63 1572.26 Q1155.88 1572.17 1156.06 1572.17 Q1156.24 1572.15 1156.76 1572.15 Q1157.68 1572.15 1158.29 1572.13 Q1158.92 1572.08 1159.37 1571.97 Q1159.84 1571.83 1160.07 1571.72 Q1160.32 1571.59 1160.5 1571.29 Q1160.7 1570.98 1160.77 1570.73 Q1160.86 1570.48 1160.97 1569.96 L1167.19 1545.07 Q1167.28 1544.67 1167.28 1544.35 Q1167.28 1543.74 1166.56 1543.61 Q1165.86 1543.47 1164.11 1543.47 Q1163.56 1543.47 1163.34 1543.45 Q1163.14 1543.43 1162.96 1543.31 Q1162.8 1543.2 1162.8 1542.95 Q1162.8 1542.64 1162.89 1542.44 Q1162.98 1542.21 1163.14 1542.14 Q1163.32 1542.07 1163.43 1542.05 Q1163.54 1542.03 1163.72 1542.03 L1169.88 1542.17 L1175.96 1542.03 Q1176.66 1542.03 1176.66 1542.59 Z" fill="#000000" fill-rule="nonzero" fill-opacity="1"></path><path clip-path="url(#clip940)" d="M1218.89 1542.55 Q1218.89 1543.47 1218.11 1543.47 Q1215.56 1543.56 1214.52 1544.42 Q1213.51 1545.25 1213.12 1546.88 L1206.68 1572.6 Q1206.45 1573.41 1206.32 1573.5 Q1206.18 1573.57 1205.93 1573.57 Q1205.62 1573.57 1205.44 1573.41 Q1205.28 1573.25 1205.05 1572.69 L1193.56 1545.5 Q1193.47 1545.32 1193.35 1545.07 Q1193.24 1544.83 1193.15 1544.67 L1187.04 1569.04 Q1186.86 1569.74 1186.86 1570.1 Q1186.86 1570.98 1187.47 1571.54 Q1188.1 1572.08 1189.9 1572.15 Q1190.83 1572.15 1190.83 1572.64 Q1190.83 1573.57 1189.99 1573.57 Q1189.23 1573.57 1187.63 1573.5 Q1186.03 1573.43 1185.24 1573.43 Q1184.47 1573.43 1182.91 1573.5 Q1181.36 1573.57 1180.62 1573.57 Q1180.03 1573.57 1180.03 1573.05 Q1180.03 1572.64 1180.19 1572.44 Q1180.34 1572.22 1180.48 1572.19 Q1180.62 1572.15 1180.82 1572.15 Q1182.17 1572.1 1183.09 1571.83 Q1184.02 1571.56 1184.54 1571.04 Q1185.08 1570.53 1185.33 1570.01 Q1185.6 1569.47 1185.8 1568.68 L1191.98 1543.88 Q1191.98 1543.47 1188.84 1543.47 Q1188.3 1543.47 1188.08 1543.45 Q1187.87 1543.43 1187.72 1543.31 Q1187.56 1543.2 1187.56 1542.95 Q1187.56 1542.32 1187.83 1542.19 Q1188.1 1542.03 1188.89 1542.03 L1195.09 1542.03 Q1195.88 1542.03 1196.08 1542.17 Q1196.28 1542.28 1196.55 1542.91 L1206.77 1567.01 L1211.93 1546.47 Q1212.06 1546.07 1212.06 1545.5 Q1212.06 1544.6 1211.39 1544.06 Q1210.73 1543.5 1208.93 1543.47 Q1208.1 1543.47 1208.1 1542.95 Q1208.1 1542.53 1208.25 1542.32 Q1208.43 1542.1 1208.57 1542.07 Q1208.73 1542.03 1208.93 1542.03 Q1209.7 1542.03 1211.28 1542.1 Q1212.85 1542.17 1213.64 1542.17 Q1214.41 1542.17 1215.96 1542.1 Q1217.54 1542.03 1218.31 1542.03 Q1218.58 1542.03 1218.71 1542.17 Q1218.87 1542.28 1218.89 1542.41 L1218.89 1542.55 Z" fill="#000000" fill-rule="nonzero" fill-opacity="1"></path><path clip-path="url(#clip940)" d="M1249.12 1541.49 L1246.62 1551.59 Q1246.48 1552.2 1246.37 1552.36 Q1246.26 1552.51 1245.94 1552.51 Q1245.69 1552.51 1245.53 1552.4 Q1245.4 1552.29 1245.4 1552.17 L1245.38 1552.06 Q1245.38 1551.99 1245.42 1551.66 Q1245.47 1551.3 1245.51 1550.71 Q1245.56 1550.12 1245.56 1549.47 Q1245.56 1545.77 1243.75 1544.06 Q1241.97 1542.32 1238.91 1542.32 Q1236.79 1542.32 1234.89 1543.45 Q1233 1544.58 1231.92 1546.36 Q1230.84 1548.12 1230.84 1549.97 Q1230.84 1551.66 1231.69 1552.74 Q1232.55 1553.82 1233.65 1554.18 L1236.74 1555.02 Q1239.99 1555.85 1240.91 1556.21 Q1241.84 1556.55 1242.6 1557.31 Q1244.88 1559.43 1244.88 1562.73 Q1244.88 1565.57 1243.28 1568.32 Q1241.68 1571.04 1238.93 1572.83 Q1236.18 1574.58 1233.13 1574.58 Q1227.79 1574.58 1225.33 1571.27 L1223.08 1573.88 Q1222.65 1574.38 1222.52 1574.47 Q1222.4 1574.58 1222.25 1574.58 Q1222.04 1574.58 1221.89 1574.45 Q1221.73 1574.34 1221.73 1574.13 Q1221.73 1573.97 1223.06 1568.68 Q1224.39 1563.38 1224.5 1563.27 Q1224.68 1563.09 1224.97 1563.09 Q1225.51 1563.09 1225.51 1563.6 Q1225.47 1563.74 1225.42 1563.92 Q1225.15 1565.54 1225.15 1566.42 Q1225.15 1568.07 1225.72 1569.33 Q1226.28 1570.57 1227.12 1571.29 Q1227.97 1571.99 1229.12 1572.44 Q1230.27 1572.87 1231.24 1573.03 Q1232.21 1573.16 1233.22 1573.16 Q1235.41 1573.16 1237.35 1571.9 Q1239.31 1570.64 1240.42 1568.68 Q1241.54 1566.72 1241.54 1564.66 Q1241.54 1563.58 1241.25 1562.75 Q1240.96 1561.89 1240.55 1561.42 Q1240.17 1560.94 1239.51 1560.58 Q1238.86 1560.22 1238.41 1560.09 Q1237.98 1559.93 1237.31 1559.77 L1232.37 1558.46 Q1230.38 1557.88 1228.96 1556.19 Q1227.57 1554.5 1227.57 1551.9 Q1227.57 1549.18 1229.17 1546.65 Q1230.79 1544.1 1233.43 1542.57 Q1236.09 1541.02 1238.95 1541.02 Q1241.21 1541.02 1242.94 1541.89 Q1244.68 1542.75 1245.56 1544.35 L1247.79 1541.71 Q1248.24 1541.2 1248.33 1541.11 Q1248.44 1541.02 1248.6 1541.02 Q1248.87 1541.02 1248.98 1541.17 Q1249.12 1541.33 1249.12 1541.49 Z" fill="#000000" fill-rule="nonzero" fill-opacity="1"></path><path clip-path="url(#clip940)" d="M1318.64 1536.07 Q1319.02 1536.45 1319.02 1537 Q1319.02 1537.55 1318.64 1537.93 Q1318.25 1538.32 1317.7 1538.32 L1276.41 1538.32 Q1275.87 1538.32 1275.48 1537.93 Q1275.09 1537.55 1275.09 1537 Q1275.09 1536.45 1275.48 1536.07 Q1275.87 1535.68 1276.41 1535.68 L1317.7 1535.68 Q1318.25 1535.68 1318.64 1536.07 Z" fill="#000000" fill-rule="nonzero" fill-opacity="1"></path><path clip-path="url(#clip940)" d="M1378.12 1544.05 Q1377.29 1548.21 1376.16 1550.59 Q1374.32 1554.23 1371.26 1554.23 Q1369.14 1554.23 1367.53 1553.04 Q1365.95 1551.81 1365.4 1549.78 Q1364.79 1550.59 1364.24 1551.14 Q1363.73 1551.68 1362.73 1552.52 Q1361.73 1553.33 1360.38 1553.78 Q1359.06 1554.23 1357.54 1554.23 Q1356.38 1554.23 1355.32 1554 Q1354.26 1553.81 1353.13 1553.26 Q1352.04 1552.68 1351.23 1551.81 Q1350.46 1550.94 1349.94 1549.53 Q1349.43 1548.11 1349.43 1546.31 Q1349.43 1544.05 1350.3 1540.99 Q1351.2 1537.93 1353.26 1532.46 Q1354.39 1529.56 1354.39 1527.95 Q1354.39 1527.21 1354.23 1526.73 Q1354.06 1526.24 1353.74 1526.08 Q1353.45 1525.89 1353.26 1525.86 Q1353.07 1525.79 1352.74 1525.79 Q1350.75 1525.79 1349.01 1527.82 Q1347.27 1529.85 1346.08 1533.97 Q1345.82 1534.78 1345.66 1534.97 Q1345.5 1535.16 1345.01 1535.16 Q1344.21 1535.13 1344.21 1534.49 Q1344.21 1534.23 1344.5 1533.23 Q1344.79 1532.2 1345.47 1530.69 Q1346.17 1529.14 1347.14 1527.76 Q1348.11 1526.34 1349.62 1525.34 Q1351.17 1524.34 1352.94 1524.34 Q1355.35 1524.34 1356.83 1525.92 Q1358.35 1527.47 1358.35 1529.75 Q1358.35 1531.17 1357.22 1533.91 Q1353.65 1543.41 1353.65 1547.37 Q1353.65 1552.75 1357.74 1552.75 Q1359.09 1552.75 1360.34 1552.2 Q1361.63 1551.65 1362.47 1550.88 Q1363.31 1550.11 1363.95 1549.27 Q1364.63 1548.43 1364.92 1547.88 Q1365.24 1547.34 1365.27 1547.21 L1370.2 1527.37 Q1370.39 1526.6 1370.75 1526.08 Q1371.13 1525.53 1371.58 1525.34 Q1372.04 1525.15 1372.29 1525.12 Q1372.55 1525.05 1372.78 1525.05 Q1373.58 1525.05 1374.13 1525.53 Q1374.71 1526.02 1374.71 1526.85 Q1374.71 1527.02 1374.52 1527.79 Q1374.35 1528.53 1374.1 1529.62 Q1373.84 1530.69 1373.71 1531.27 Q1372.68 1535.32 1372.58 1535.74 L1370.75 1542.86 Q1370.65 1543.28 1370.33 1544.63 Q1370.04 1545.98 1369.88 1546.69 Q1369.72 1547.37 1369.56 1548.3 Q1369.43 1549.21 1369.43 1549.72 Q1369.43 1551.33 1369.91 1552.04 Q1370.39 1552.75 1371.46 1552.75 Q1372.45 1552.75 1373.23 1552.07 Q1374.03 1551.36 1374.64 1550.01 Q1375.26 1548.63 1375.61 1547.5 Q1375.96 1546.37 1376.42 1544.6 Q1376.58 1543.83 1376.71 1543.63 Q1376.87 1543.41 1377.32 1543.41 Q1378.12 1543.41 1378.12 1544.05 Z" fill="#000000" fill-rule="nonzero" fill-opacity="1"></path><path clip-path="url(#clip940)" d="M1416.75 1553.44 Q1416.75 1556.66 1415.6 1559.86 Q1414.47 1563.04 1412.49 1565.66 Q1410.51 1568.27 1407.98 1570.3 Q1405.46 1572.33 1402.5 1573.46 Q1399.55 1574.58 1396.66 1574.58 Q1391.55 1574.58 1388.19 1571.22 Q1384.83 1567.87 1384.83 1562.25 Q1384.83 1558.33 1386.59 1554.43 Q1388.34 1550.51 1391.14 1547.6 Q1393.94 1544.67 1397.61 1542.84 Q1401.31 1541.02 1404.96 1541.02 Q1410.14 1541.02 1413.44 1544.46 Q1416.75 1547.89 1416.75 1553.44 M1412.62 1551.63 Q1412.62 1549.15 1411.93 1547.28 Q1411.23 1545.39 1410.05 1544.31 Q1408.9 1543.22 1407.53 1542.71 Q1406.18 1542.17 1404.69 1542.17 Q1401.8 1542.17 1398.71 1544.04 Q1395.63 1545.91 1393.33 1549.38 Q1392.09 1551.27 1391.19 1553.55 Q1390.28 1555.8 1389.88 1557.81 Q1389.47 1559.79 1389.29 1561.19 Q1389.13 1562.59 1389.13 1563.56 Q1389.13 1568.07 1391.3 1570.73 Q1393.46 1573.39 1396.93 1573.39 Q1399.66 1573.39 1402.32 1571.79 Q1404.98 1570.16 1406.81 1567.84 Q1408.43 1565.84 1409.63 1563.42 Q1410.84 1561.01 1411.45 1558.8 Q1412.06 1556.59 1412.33 1554.81 Q1412.62 1553.03 1412.62 1551.63 Z" fill="#000000" fill-rule="nonzero" fill-opacity="1"></path><path clip-path="url(#clip940)" d="M1455.54 1553.71 Q1455.54 1557.43 1453.94 1561.08 Q1452.36 1564.71 1449.79 1567.46 Q1447.25 1570.19 1443.8 1571.88 Q1440.35 1573.57 1436.83 1573.57 L1421.55 1573.57 Q1421 1573.57 1420.78 1573.55 Q1420.58 1573.52 1420.42 1573.41 Q1420.26 1573.28 1420.26 1573.01 Q1420.26 1572.58 1420.44 1572.4 Q1420.62 1572.19 1420.82 1572.17 Q1421.03 1572.15 1421.55 1572.15 Q1422.67 1572.15 1423.35 1572.08 Q1424.02 1572.01 1424.45 1571.92 Q1424.9 1571.81 1425.13 1571.49 Q1425.38 1571.18 1425.49 1570.91 Q1425.6 1570.62 1425.76 1569.96 L1431.94 1545.16 Q1432.12 1544.42 1432.12 1544.31 Q1432.12 1543.92 1431.89 1543.79 Q1431.69 1543.63 1431.1 1543.56 Q1429.98 1543.47 1429.12 1543.47 Q1428.56 1543.47 1428.33 1543.45 Q1428.13 1543.43 1427.95 1543.31 Q1427.79 1543.18 1427.79 1542.91 Q1427.79 1542.48 1427.97 1542.3 Q1428.17 1542.1 1428.4 1542.07 Q1428.62 1542.03 1429.16 1542.03 L1444.68 1542.03 Q1448.03 1542.03 1450.54 1543.61 Q1453.04 1545.16 1454.28 1547.8 Q1455.54 1550.42 1455.54 1553.71 M1451.51 1552.02 Q1451.51 1547.71 1449.16 1545.59 Q1446.84 1543.47 1443.16 1543.47 L1438.23 1543.47 Q1436.76 1543.47 1436.4 1543.74 Q1436.04 1543.99 1435.73 1545.23 L1429.39 1570.57 Q1429.16 1571.4 1429.16 1571.63 Q1429.16 1571.88 1429.28 1571.97 Q1429.41 1572.04 1429.77 1572.08 Q1430.18 1572.15 1430.79 1572.15 L1436 1572.15 Q1438 1572.15 1439.83 1571.61 Q1441.68 1571.04 1443.01 1570.16 Q1444.34 1569.26 1445.19 1568.5 Q1446.05 1567.71 1446.66 1566.92 Q1448.03 1565.14 1449.05 1562.82 Q1450.09 1560.49 1450.56 1558.37 Q1451.06 1556.23 1451.28 1554.65 Q1451.51 1553.05 1451.51 1552.02 Z" fill="#000000" fill-rule="nonzero" fill-opacity="1"></path><path clip-path="url(#clip940)" d="M1491.77 1543.43 L1490.85 1551.41 Q1490.78 1552.13 1490.67 1552.36 Q1490.55 1552.56 1490.19 1552.56 Q1489.92 1552.56 1489.76 1552.4 Q1489.63 1552.22 1489.63 1552.02 Q1489.63 1551.9 1489.65 1551.61 Q1489.67 1551.32 1489.67 1551.18 Q1489.88 1549.79 1489.88 1548.73 Q1489.88 1546.76 1489.29 1545.7 Q1488.7 1544.62 1487.19 1544.13 Q1485.68 1543.61 1482.84 1543.61 L1476.35 1543.61 Q1474.86 1543.61 1474.5 1543.88 Q1474.16 1544.15 1473.85 1545.41 L1471.07 1556.53 L1475.43 1556.53 Q1477.05 1556.53 1478.02 1556.32 Q1479.01 1556.12 1479.66 1555.56 Q1480.34 1554.97 1480.7 1554.18 Q1481.08 1553.39 1481.47 1551.97 Q1481.58 1551.5 1481.69 1551.32 Q1481.83 1551.14 1482.12 1551.14 Q1482.35 1551.14 1482.5 1551.3 Q1482.66 1551.43 1482.66 1551.63 L1480.02 1562.43 Q1479.89 1562.97 1479.75 1563.18 Q1479.62 1563.36 1479.35 1563.36 Q1479.06 1563.36 1478.9 1563.2 Q1478.74 1563.04 1478.74 1562.86 Q1478.74 1562.68 1478.88 1562.34 Q1479.21 1560.88 1479.21 1560.09 Q1479.21 1559.64 1479.17 1559.41 Q1479.15 1559.19 1478.94 1558.87 Q1478.76 1558.53 1478.36 1558.37 Q1477.95 1558.22 1477.18 1558.1 Q1476.42 1557.97 1475.27 1557.97 L1470.71 1557.97 L1467.56 1570.57 Q1467.33 1571.4 1467.33 1571.63 Q1467.33 1571.88 1467.45 1571.97 Q1467.58 1572.04 1467.94 1572.08 Q1468.35 1572.15 1468.96 1572.15 L1475.7 1572.15 Q1477.18 1572.15 1478.38 1572.01 Q1479.57 1571.88 1480.57 1571.54 Q1481.58 1571.2 1482.35 1570.82 Q1483.11 1570.44 1483.83 1569.74 Q1484.56 1569.02 1485.05 1568.38 Q1485.57 1567.73 1486.18 1566.63 Q1486.79 1565.52 1487.22 1564.62 Q1487.64 1563.69 1488.3 1562.21 Q1488.48 1561.67 1488.91 1561.67 Q1489.16 1561.67 1489.29 1561.8 Q1489.43 1561.91 1489.45 1562.03 L1489.45 1562.16 Q1489.31 1562.59 1489.22 1562.82 L1484.98 1572.78 Q1484.74 1573.34 1484.53 1573.46 Q1484.33 1573.57 1483.54 1573.57 L1459.58 1573.57 Q1459.04 1573.57 1458.81 1573.55 Q1458.61 1573.52 1458.45 1573.41 Q1458.29 1573.28 1458.29 1573.01 Q1458.29 1572.58 1458.47 1572.4 Q1458.65 1572.19 1458.86 1572.17 Q1459.06 1572.15 1459.58 1572.15 Q1460.7 1572.15 1461.38 1572.08 Q1462.06 1572.01 1462.49 1571.92 Q1462.94 1571.81 1463.16 1571.49 Q1463.41 1571.18 1463.52 1570.91 Q1463.64 1570.62 1463.79 1569.96 L1469.88 1545.55 Q1470.11 1544.71 1470.11 1544.44 Q1470.11 1544.15 1469.9 1543.97 Q1469.72 1543.79 1469.23 1543.72 Q1468.73 1543.63 1468.32 1543.63 Q1467.94 1543.61 1467.11 1543.61 Q1466.57 1543.61 1466.34 1543.59 Q1466.14 1543.56 1465.98 1543.45 Q1465.82 1543.34 1465.82 1543.09 Q1465.82 1542.46 1466.09 1542.32 Q1466.39 1542.17 1467.2 1542.17 L1490.51 1542.17 Q1491.43 1542.17 1491.64 1542.37 Q1491.86 1542.55 1491.77 1543.43 Z" fill="#000000" fill-rule="nonzero" fill-opacity="1"></path><path clip-path="url(#clip940)" d="M1499.07 1567.95 L1499.07 1506.53 Q1499.07 1504.08 1500.39 1504.08 Q1501.71 1504.08 1501.71 1506.05 L1501.71 1567.47 Q1501.71 1569.91 1500.39 1569.91 Q1499.07 1569.91 1499.07 1567.95 Z" fill="#000000" fill-rule="nonzero" fill-opacity="1"></path><path clip-path="url(#clip940)" d="M1513.1 1569.33 Q1513.1 1569.01 1513.93 1568.21 Q1524.56 1557.39 1524.56 1537 Q1524.56 1516.55 1514.35 1506.21 Q1513.1 1505.02 1513.1 1504.66 Q1513.1 1504.02 1513.74 1504.02 Q1514.19 1504.02 1515.77 1505.34 Q1517.38 1506.66 1519.8 1509.69 Q1522.24 1512.72 1524.05 1516.42 Q1528.39 1525.4 1528.39 1537 Q1528.39 1548.14 1524.24 1557.13 Q1522.47 1560.9 1519.99 1564.05 Q1517.51 1567.21 1515.87 1568.59 Q1514.22 1569.98 1513.74 1569.98 Q1513.1 1569.98 1513.1 1569.33 Z" fill="#000000" fill-rule="nonzero" fill-opacity="1"></path><polyline clip-path="url(#clip942)" style="stroke:#000000; stroke-linecap:round; stroke-linejoin:round; stroke-width:2; stroke-opacity:0.1; fill:none" points="138.959,1423.18 2352.76,1423.18 "></polyline>
<polyline clip-path="url(#clip942)" style="stroke:#000000; stroke-linecap:round; stroke-linejoin:round; stroke-width:2; stroke-opacity:0.1; fill:none" points="138.959,1061.09 2352.76,1061.09 "></polyline>
<polyline clip-path="url(#clip942)" style="stroke:#000000; stroke-linecap:round; stroke-linejoin:round; stroke-width:2; stroke-opacity:0.1; fill:none" points="138.959,699.003 2352.76,699.003 "></polyline>
<polyline clip-path="url(#clip942)" style="stroke:#000000; stroke-linecap:round; stroke-linejoin:round; stroke-width:2; stroke-opacity:0.1; fill:none" points="138.959,336.915 2352.76,336.915 "></polyline>
<polyline clip-path="url(#clip940)" style="stroke:#000000; stroke-linecap:round; stroke-linejoin:round; stroke-width:4; stroke-opacity:1; fill:none" points="138.959,1423.18 138.959,47.2441 "></polyline>
<polyline clip-path="url(#clip940)" style="stroke:#000000; stroke-linecap:round; stroke-linejoin:round; stroke-width:4; stroke-opacity:1; fill:none" points="138.959,1423.18 157.857,1423.18 "></polyline>
<polyline clip-path="url(#clip940)" style="stroke:#000000; stroke-linecap:round; stroke-linejoin:round; stroke-width:4; stroke-opacity:1; fill:none" points="138.959,1061.09 157.857,1061.09 "></polyline>
<polyline clip-path="url(#clip940)" style="stroke:#000000; stroke-linecap:round; stroke-linejoin:round; stroke-width:4; stroke-opacity:1; fill:none" points="138.959,699.003 157.857,699.003 "></polyline>
<polyline clip-path="url(#clip940)" style="stroke:#000000; stroke-linecap:round; stroke-linejoin:round; stroke-width:4; stroke-opacity:1; fill:none" points="138.959,336.915 157.857,336.915 "></polyline>
<path clip-path="url(#clip940)" d="M91.0151 1408.98 Q87.404 1408.98 85.5753 1412.54 Q83.7697 1416.08 83.7697 1423.21 Q83.7697 1430.32 85.5753 1433.89 Q87.404 1437.43 91.0151 1437.43 Q94.6493 1437.43 96.4548 1433.89 Q98.2835 1430.32 98.2835 1423.21 Q98.2835 1416.08 96.4548 1412.54 Q94.6493 1408.98 91.0151 1408.98 M91.0151 1405.27 Q96.8252 1405.27 99.8808 1409.88 Q102.959 1414.46 102.959 1423.21 Q102.959 1431.94 99.8808 1436.55 Q96.8252 1441.13 91.0151 1441.13 Q85.2049 1441.13 82.1262 1436.55 Q79.0707 1431.94 79.0707 1423.21 Q79.0707 1414.46 82.1262 1409.88 Q85.2049 1405.27 91.0151 1405.27 Z" fill="#000000" fill-rule="nonzero" fill-opacity="1"></path><path clip-path="url(#clip940)" d="M82.0568 1043.81 L100.413 1043.81 L100.413 1047.75 L86.3392 1047.75 L86.3392 1056.22 Q87.3577 1055.87 88.3762 1055.71 Q89.3947 1055.52 90.4132 1055.52 Q96.2002 1055.52 99.5798 1058.7 Q102.959 1061.87 102.959 1067.28 Q102.959 1072.86 99.4872 1075.96 Q96.015 1079.04 89.6956 1079.04 Q87.5197 1079.04 85.2512 1078.67 Q83.0058 1078.3 80.5984 1077.56 L80.5984 1072.86 Q82.6818 1074 84.904 1074.55 Q87.1262 1075.11 89.603 1075.11 Q93.6076 1075.11 95.9456 1073 Q98.2835 1070.89 98.2835 1067.28 Q98.2835 1063.67 95.9456 1061.57 Q93.6076 1059.46 89.603 1059.46 Q87.728 1059.46 85.8531 1059.88 Q84.0012 1060.29 82.0568 1061.17 L82.0568 1043.81 Z" fill="#000000" fill-rule="nonzero" fill-opacity="1"></path><path clip-path="url(#clip940)" d="M51.6634 712.348 L59.3023 712.348 L59.3023 685.982 L50.9921 687.649 L50.9921 683.39 L59.256 681.723 L63.9319 681.723 L63.9319 712.348 L71.5707 712.348 L71.5707 716.283 L51.6634 716.283 L51.6634 712.348 Z" fill="#000000" fill-rule="nonzero" fill-opacity="1"></path><path clip-path="url(#clip940)" d="M91.0151 684.802 Q87.404 684.802 85.5753 688.367 Q83.7697 691.908 83.7697 699.038 Q83.7697 706.144 85.5753 709.709 Q87.404 713.251 91.0151 713.251 Q94.6493 713.251 96.4548 709.709 Q98.2835 706.144 98.2835 699.038 Q98.2835 691.908 96.4548 688.367 Q94.6493 684.802 91.0151 684.802 M91.0151 681.098 Q96.8252 681.098 99.8808 685.705 Q102.959 690.288 102.959 699.038 Q102.959 707.765 99.8808 712.371 Q96.8252 716.954 91.0151 716.954 Q85.2049 716.954 82.1262 712.371 Q79.0707 707.765 79.0707 699.038 Q79.0707 690.288 82.1262 685.705 Q85.2049 681.098 91.0151 681.098 Z" fill="#000000" fill-rule="nonzero" fill-opacity="1"></path><path clip-path="url(#clip940)" d="M52.6588 350.26 L60.2976 350.26 L60.2976 323.894 L51.9875 325.561 L51.9875 321.301 L60.2513 319.635 L64.9272 319.635 L64.9272 350.26 L72.5661 350.26 L72.5661 354.195 L52.6588 354.195 L52.6588 350.26 Z" fill="#000000" fill-rule="nonzero" fill-opacity="1"></path><path clip-path="url(#clip940)" d="M82.0568 319.635 L100.413 319.635 L100.413 323.57 L86.3392 323.57 L86.3392 332.042 Q87.3577 331.695 88.3762 331.533 Q89.3947 331.348 90.4132 331.348 Q96.2002 331.348 99.5798 334.519 Q102.959 337.69 102.959 343.107 Q102.959 348.686 99.4872 351.787 Q96.015 354.866 89.6956 354.866 Q87.5197 354.866 85.2512 354.496 Q83.0058 354.125 80.5984 353.385 L80.5984 348.686 Q82.6818 349.82 84.904 350.375 Q87.1262 350.931 89.603 350.931 Q93.6076 350.931 95.9456 348.824 Q98.2835 346.718 98.2835 343.107 Q98.2835 339.496 95.9456 337.389 Q93.6076 335.283 89.603 335.283 Q87.728 335.283 85.8531 335.7 Q84.0012 336.116 82.0568 336.996 L82.0568 319.635 Z" fill="#000000" fill-rule="nonzero" fill-opacity="1"></path><path clip-path="url(#clip942)" d="M260.722 1205.93 L260.722 1423.18 L359.236 1423.18 L359.236 1205.93 L260.722 1205.93 L260.722 1205.93  Z" fill="#009af9" fill-rule="evenodd" fill-opacity="1"></path>
<polyline clip-path="url(#clip942)" style="stroke:#000000; stroke-linecap:round; stroke-linejoin:round; stroke-width:4; stroke-opacity:1; fill:none" points="260.722,1205.93 260.722,1423.18 359.236,1423.18 359.236,1205.93 260.722,1205.93 "></polyline>
<path clip-path="url(#clip942)" d="M359.236 336.915 L359.236 1423.18 L457.749 1423.18 L457.749 336.915 L359.236 336.915 L359.236 336.915  Z" fill="#009af9" fill-rule="evenodd" fill-opacity="1"></path>
<polyline clip-path="url(#clip942)" style="stroke:#000000; stroke-linecap:round; stroke-linejoin:round; stroke-width:4; stroke-opacity:1; fill:none" points="359.236,336.915 359.236,1423.18 457.749,1423.18 457.749,336.915 359.236,336.915 "></polyline>
<path clip-path="url(#clip942)" d="M457.749 988.674 L457.749 1423.18 L556.263 1423.18 L556.263 988.674 L457.749 988.674 L457.749 988.674  Z" fill="#009af9" fill-rule="evenodd" fill-opacity="1"></path>
<polyline clip-path="url(#clip942)" style="stroke:#000000; stroke-linecap:round; stroke-linejoin:round; stroke-width:4; stroke-opacity:1; fill:none" points="457.749,988.674 457.749,1423.18 556.263,1423.18 556.263,988.674 457.749,988.674 "></polyline>
<path clip-path="url(#clip942)" d="M556.263 47.2441 L556.263 1423.18 L654.776 1423.18 L654.776 47.2441 L556.263 47.2441 L556.263 47.2441  Z" fill="#009af9" fill-rule="evenodd" fill-opacity="1"></path>
<polyline clip-path="url(#clip942)" style="stroke:#000000; stroke-linecap:round; stroke-linejoin:round; stroke-width:4; stroke-opacity:1; fill:none" points="556.263,47.2441 556.263,1423.18 654.776,1423.18 654.776,47.2441 556.263,47.2441 "></polyline>
<path clip-path="url(#clip942)" d="M654.776 481.75 L654.776 1423.18 L753.29 1423.18 L753.29 481.75 L654.776 481.75 L654.776 481.75  Z" fill="#009af9" fill-rule="evenodd" fill-opacity="1"></path>
<polyline clip-path="url(#clip942)" style="stroke:#000000; stroke-linecap:round; stroke-linejoin:round; stroke-width:4; stroke-opacity:1; fill:none" points="654.776,481.75 654.776,1423.18 753.29,1423.18 753.29,481.75 654.776,481.75 "></polyline>
<path clip-path="url(#clip942)" d="M753.29 409.332 L753.29 1423.18 L851.803 1423.18 L851.803 409.332 L753.29 409.332 L753.29 409.332  Z" fill="#009af9" fill-rule="evenodd" fill-opacity="1"></path>
<polyline clip-path="url(#clip942)" style="stroke:#000000; stroke-linecap:round; stroke-linejoin:round; stroke-width:4; stroke-opacity:1; fill:none" points="753.29,409.332 753.29,1423.18 851.803,1423.18 851.803,409.332 753.29,409.332 "></polyline>
<path clip-path="url(#clip942)" d="M851.803 771.421 L851.803 1423.18 L950.317 1423.18 L950.317 771.421 L851.803 771.421 L851.803 771.421  Z" fill="#009af9" fill-rule="evenodd" fill-opacity="1"></path>
<polyline clip-path="url(#clip942)" style="stroke:#000000; stroke-linecap:round; stroke-linejoin:round; stroke-width:4; stroke-opacity:1; fill:none" points="851.803,771.421 851.803,1423.18 950.317,1423.18 950.317,771.421 851.803,771.421 "></polyline>
<path clip-path="url(#clip942)" d="M950.317 1205.93 L950.317 1423.18 L1048.83 1423.18 L1048.83 1205.93 L950.317 1205.93 L950.317 1205.93  Z" fill="#009af9" fill-rule="evenodd" fill-opacity="1"></path>
<polyline clip-path="url(#clip942)" style="stroke:#000000; stroke-linecap:round; stroke-linejoin:round; stroke-width:4; stroke-opacity:1; fill:none" points="950.317,1205.93 950.317,1423.18 1048.83,1423.18 1048.83,1205.93 950.317,1205.93 "></polyline>
<path clip-path="url(#clip942)" d="M1048.83 988.674 L1048.83 1423.18 L1147.34 1423.18 L1147.34 988.674 L1048.83 988.674 L1048.83 988.674  Z" fill="#009af9" fill-rule="evenodd" fill-opacity="1"></path>
<polyline clip-path="url(#clip942)" style="stroke:#000000; stroke-linecap:round; stroke-linejoin:round; stroke-width:4; stroke-opacity:1; fill:none" points="1048.83,988.674 1048.83,1423.18 1147.34,1423.18 1147.34,988.674 1048.83,988.674 "></polyline>
<path clip-path="url(#clip942)" d="M1147.34 1278.34 L1147.34 1423.18 L1245.86 1423.18 L1245.86 1278.34 L1147.34 1278.34 L1147.34 1278.34  Z" fill="#009af9" fill-rule="evenodd" fill-opacity="1"></path>
<polyline clip-path="url(#clip942)" style="stroke:#000000; stroke-linecap:round; stroke-linejoin:round; stroke-width:4; stroke-opacity:1; fill:none" points="1147.34,1278.34 1147.34,1423.18 1245.86,1423.18 1245.86,1278.34 1147.34,1278.34 "></polyline>
<path clip-path="url(#clip942)" d="M1245.86 1133.51 L1245.86 1423.18 L1344.37 1423.18 L1344.37 1133.51 L1245.86 1133.51 L1245.86 1133.51  Z" fill="#009af9" fill-rule="evenodd" fill-opacity="1"></path>
<polyline clip-path="url(#clip942)" style="stroke:#000000; stroke-linecap:round; stroke-linejoin:round; stroke-width:4; stroke-opacity:1; fill:none" points="1245.86,1133.51 1245.86,1423.18 1344.37,1423.18 1344.37,1133.51 1245.86,1133.51 "></polyline>
<path clip-path="url(#clip942)" d="M1344.37 1205.93 L1344.37 1423.18 L1442.88 1423.18 L1442.88 1205.93 L1344.37 1205.93 L1344.37 1205.93  Z" fill="#009af9" fill-rule="evenodd" fill-opacity="1"></path>
<polyline clip-path="url(#clip942)" style="stroke:#000000; stroke-linecap:round; stroke-linejoin:round; stroke-width:4; stroke-opacity:1; fill:none" points="1344.37,1205.93 1344.37,1423.18 1442.88,1423.18 1442.88,1205.93 1344.37,1205.93 "></polyline>
<path clip-path="url(#clip942)" d="M1442.88 1423.18 L1442.88 1423.18 L1541.4 1423.18 L1541.4 1423.18 L1442.88 1423.18 L1442.88 1423.18  Z" fill="#009af9" fill-rule="evenodd" fill-opacity="1"></path>
<polyline clip-path="url(#clip942)" style="stroke:#000000; stroke-linecap:round; stroke-linejoin:round; stroke-width:4; stroke-opacity:1; fill:none" points="1442.88,1423.18 1442.88,1423.18 1541.4,1423.18 1442.88,1423.18 "></polyline>
<path clip-path="url(#clip942)" d="M1541.4 1423.18 L1541.4 1423.18 L1639.91 1423.18 L1639.91 1423.18 L1541.4 1423.18 L1541.4 1423.18  Z" fill="#009af9" fill-rule="evenodd" fill-opacity="1"></path>
<polyline clip-path="url(#clip942)" style="stroke:#000000; stroke-linecap:round; stroke-linejoin:round; stroke-width:4; stroke-opacity:1; fill:none" points="1541.4,1423.18 1541.4,1423.18 1639.91,1423.18 1541.4,1423.18 "></polyline>
<path clip-path="url(#clip942)" d="M1639.91 1423.18 L1639.91 1423.18 L1738.43 1423.18 L1738.43 1423.18 L1639.91 1423.18 L1639.91 1423.18  Z" fill="#009af9" fill-rule="evenodd" fill-opacity="1"></path>
<polyline clip-path="url(#clip942)" style="stroke:#000000; stroke-linecap:round; stroke-linejoin:round; stroke-width:4; stroke-opacity:1; fill:none" points="1639.91,1423.18 1639.91,1423.18 1738.43,1423.18 1639.91,1423.18 "></polyline>
<path clip-path="url(#clip942)" d="M1738.43 1423.18 L1738.43 1423.18 L1836.94 1423.18 L1836.94 1423.18 L1738.43 1423.18 L1738.43 1423.18  Z" fill="#009af9" fill-rule="evenodd" fill-opacity="1"></path>
<polyline clip-path="url(#clip942)" style="stroke:#000000; stroke-linecap:round; stroke-linejoin:round; stroke-width:4; stroke-opacity:1; fill:none" points="1738.43,1423.18 1738.43,1423.18 1836.94,1423.18 1738.43,1423.18 "></polyline>
<path clip-path="url(#clip942)" d="M1836.94 1278.34 L1836.94 1423.18 L1935.45 1423.18 L1935.45 1278.34 L1836.94 1278.34 L1836.94 1278.34  Z" fill="#009af9" fill-rule="evenodd" fill-opacity="1"></path>
<polyline clip-path="url(#clip942)" style="stroke:#000000; stroke-linecap:round; stroke-linejoin:round; stroke-width:4; stroke-opacity:1; fill:none" points="1836.94,1278.34 1836.94,1423.18 1935.45,1423.18 1935.45,1278.34 1836.94,1278.34 "></polyline>
<path clip-path="url(#clip942)" d="M1935.45 1423.18 L1935.45 1423.18 L2033.97 1423.18 L2033.97 1423.18 L1935.45 1423.18 L1935.45 1423.18  Z" fill="#009af9" fill-rule="evenodd" fill-opacity="1"></path>
<polyline clip-path="url(#clip942)" style="stroke:#000000; stroke-linecap:round; stroke-linejoin:round; stroke-width:4; stroke-opacity:1; fill:none" points="1935.45,1423.18 1935.45,1423.18 2033.97,1423.18 1935.45,1423.18 "></polyline>
<path clip-path="url(#clip942)" d="M2033.97 1423.18 L2033.97 1423.18 L2132.48 1423.18 L2132.48 1423.18 L2033.97 1423.18 L2033.97 1423.18  Z" fill="#009af9" fill-rule="evenodd" fill-opacity="1"></path>
<polyline clip-path="url(#clip942)" style="stroke:#000000; stroke-linecap:round; stroke-linejoin:round; stroke-width:4; stroke-opacity:1; fill:none" points="2033.97,1423.18 2033.97,1423.18 2132.48,1423.18 2033.97,1423.18 "></polyline>
<path clip-path="url(#clip942)" d="M2132.48 1350.76 L2132.48 1423.18 L2230.99 1423.18 L2230.99 1350.76 L2132.48 1350.76 L2132.48 1350.76  Z" fill="#009af9" fill-rule="evenodd" fill-opacity="1"></path>
<polyline clip-path="url(#clip942)" style="stroke:#000000; stroke-linecap:round; stroke-linejoin:round; stroke-width:4; stroke-opacity:1; fill:none" points="2132.48,1350.76 2132.48,1423.18 2230.99,1423.18 2230.99,1350.76 2132.48,1350.76 "></polyline>
<circle clip-path="url(#clip942)" style="fill:#009af9; stroke:none; fill-opacity:0" cx="309.979" cy="1205.93" r="2"></circle>
<circle clip-path="url(#clip942)" style="fill:#009af9; stroke:none; fill-opacity:0" cx="408.493" cy="336.915" r="2"></circle>
<circle clip-path="url(#clip942)" style="fill:#009af9; stroke:none; fill-opacity:0" cx="507.006" cy="988.674" r="2"></circle>
<circle clip-path="url(#clip942)" style="fill:#009af9; stroke:none; fill-opacity:0" cx="605.52" cy="47.2441" r="2"></circle>
<circle clip-path="url(#clip942)" style="fill:#009af9; stroke:none; fill-opacity:0" cx="704.033" cy="481.75" r="2"></circle>
<circle clip-path="url(#clip942)" style="fill:#009af9; stroke:none; fill-opacity:0" cx="802.547" cy="409.332" r="2"></circle>
<circle clip-path="url(#clip942)" style="fill:#009af9; stroke:none; fill-opacity:0" cx="901.06" cy="771.421" r="2"></circle>
<circle clip-path="url(#clip942)" style="fill:#009af9; stroke:none; fill-opacity:0" cx="999.574" cy="1205.93" r="2"></circle>
<circle clip-path="url(#clip942)" style="fill:#009af9; stroke:none; fill-opacity:0" cx="1098.09" cy="988.674" r="2"></circle>
<circle clip-path="url(#clip942)" style="fill:#009af9; stroke:none; fill-opacity:0" cx="1196.6" cy="1278.34" r="2"></circle>
<circle clip-path="url(#clip942)" style="fill:#009af9; stroke:none; fill-opacity:0" cx="1295.11" cy="1133.51" r="2"></circle>
<circle clip-path="url(#clip942)" style="fill:#009af9; stroke:none; fill-opacity:0" cx="1393.63" cy="1205.93" r="2"></circle>
<circle clip-path="url(#clip942)" style="fill:#009af9; stroke:none; fill-opacity:0" cx="1492.14" cy="1423.18" r="2"></circle>
<circle clip-path="url(#clip942)" style="fill:#009af9; stroke:none; fill-opacity:0" cx="1590.66" cy="1423.18" r="2"></circle>
<circle clip-path="url(#clip942)" style="fill:#009af9; stroke:none; fill-opacity:0" cx="1689.17" cy="1423.18" r="2"></circle>
<circle clip-path="url(#clip942)" style="fill:#009af9; stroke:none; fill-opacity:0" cx="1787.68" cy="1423.18" r="2"></circle>
<circle clip-path="url(#clip942)" style="fill:#009af9; stroke:none; fill-opacity:0" cx="1886.2" cy="1278.34" r="2"></circle>
<circle clip-path="url(#clip942)" style="fill:#009af9; stroke:none; fill-opacity:0" cx="1984.71" cy="1423.18" r="2"></circle>
<circle clip-path="url(#clip942)" style="fill:#009af9; stroke:none; fill-opacity:0" cx="2083.22" cy="1423.18" r="2"></circle>
<circle clip-path="url(#clip942)" style="fill:#009af9; stroke:none; fill-opacity:0" cx="2181.74" cy="1350.76" r="2"></circle>
<path clip-path="url(#clip940)" d="M1816.89 196.789 L2278.96 196.789 L2278.96 93.1086 L1816.89 93.1086  Z" fill="#ffffff" fill-rule="evenodd" fill-opacity="1"></path>
<polyline clip-path="url(#clip940)" style="stroke:#000000; stroke-linecap:round; stroke-linejoin:round; stroke-width:4; stroke-opacity:1; fill:none" points="1816.89,196.789 2278.96,196.789 2278.96,93.1086 1816.89,93.1086 1816.89,196.789 "></polyline>
<path clip-path="url(#clip940)" d="M1841.49 165.685 L1989.07 165.685 L1989.07 124.213 L1841.49 124.213 L1841.49 165.685  Z" fill="#009af9" fill-rule="evenodd" fill-opacity="1"></path>
<polyline clip-path="url(#clip940)" style="stroke:#000000; stroke-linecap:round; stroke-linejoin:round; stroke-width:4; stroke-opacity:1; fill:none" points="1841.49,165.685 1989.07,165.685 1989.07,124.213 1841.49,124.213 1841.49,165.685 "></polyline>
<path clip-path="url(#clip940)" d="M2013.67 127.669 L2042.91 127.669 L2042.91 131.604 L2030.64 131.604 L2030.64 162.229 L2025.94 162.229 L2025.94 131.604 L2013.67 131.604 L2013.67 127.669 Z" fill="#000000" fill-rule="nonzero" fill-opacity="1"></path><path clip-path="url(#clip940)" d="M2049.23 139.289 Q2045.8 139.289 2043.81 141.974 Q2041.82 144.636 2041.82 149.289 Q2041.82 153.942 2043.79 156.627 Q2045.78 159.289 2049.23 159.289 Q2052.63 159.289 2054.62 156.604 Q2056.61 153.918 2056.61 149.289 Q2056.61 144.682 2054.62 141.997 Q2052.63 139.289 2049.23 139.289 M2049.23 135.678 Q2054.78 135.678 2057.95 139.289 Q2061.13 142.9 2061.13 149.289 Q2061.13 155.655 2057.95 159.289 Q2054.78 162.9 2049.23 162.9 Q2043.65 162.9 2040.48 159.289 Q2037.33 155.655 2037.33 149.289 Q2037.33 142.9 2040.48 139.289 Q2043.65 135.678 2049.23 135.678 Z" fill="#000000" fill-rule="nonzero" fill-opacity="1"></path><path clip-path="url(#clip940)" d="M2072.4 128.942 L2072.4 136.303 L2081.17 136.303 L2081.17 139.613 L2072.4 139.613 L2072.4 153.687 Q2072.4 156.858 2073.25 157.761 Q2074.13 158.664 2076.8 158.664 L2081.17 158.664 L2081.17 162.229 L2076.8 162.229 Q2071.87 162.229 2069.99 160.4 Q2068.12 158.548 2068.12 153.687 L2068.12 139.613 L2064.99 139.613 L2064.99 136.303 L2068.12 136.303 L2068.12 128.942 L2072.4 128.942 Z" fill="#000000" fill-rule="nonzero" fill-opacity="1"></path><path clip-path="url(#clip940)" d="M2098.56 149.196 Q2093.39 149.196 2091.4 150.377 Q2089.41 151.557 2089.41 154.405 Q2089.41 156.673 2090.89 158.016 Q2092.4 159.335 2094.97 159.335 Q2098.51 159.335 2100.64 156.835 Q2102.79 154.312 2102.79 150.145 L2102.79 149.196 L2098.56 149.196 M2107.05 147.437 L2107.05 162.229 L2102.79 162.229 L2102.79 158.293 Q2101.33 160.655 2099.16 161.789 Q2096.98 162.9 2093.83 162.9 Q2089.85 162.9 2087.49 160.678 Q2085.15 158.432 2085.15 154.682 Q2085.15 150.307 2088.07 148.085 Q2091.01 145.863 2096.82 145.863 L2102.79 145.863 L2102.79 145.446 Q2102.79 142.507 2100.85 140.909 Q2098.93 139.289 2095.43 139.289 Q2093.21 139.289 2091.1 139.821 Q2089 140.354 2087.05 141.419 L2087.05 137.483 Q2089.39 136.581 2091.59 136.141 Q2093.79 135.678 2095.87 135.678 Q2101.5 135.678 2104.27 138.594 Q2107.05 141.511 2107.05 147.437 Z" fill="#000000" fill-rule="nonzero" fill-opacity="1"></path><path clip-path="url(#clip940)" d="M2115.82 126.21 L2120.08 126.21 L2120.08 162.229 L2115.82 162.229 L2115.82 126.21 Z" fill="#000000" fill-rule="nonzero" fill-opacity="1"></path><path clip-path="url(#clip940)" d="M2166.24 148.201 L2166.24 150.284 L2146.66 150.284 Q2146.93 154.682 2149.3 156.997 Q2151.68 159.289 2155.92 159.289 Q2158.37 159.289 2160.66 158.687 Q2162.98 158.085 2165.25 156.881 L2165.25 160.909 Q2162.95 161.881 2160.55 162.391 Q2158.14 162.9 2155.66 162.9 Q2149.46 162.9 2145.82 159.289 Q2142.21 155.678 2142.21 149.52 Q2142.21 143.155 2145.64 139.428 Q2149.09 135.678 2154.92 135.678 Q2160.15 135.678 2163.18 139.057 Q2166.24 142.414 2166.24 148.201 M2161.98 146.951 Q2161.93 143.456 2160.01 141.372 Q2158.12 139.289 2154.97 139.289 Q2151.4 139.289 2149.25 141.303 Q2147.12 143.317 2146.8 146.974 L2161.98 146.951 Z" fill="#000000" fill-rule="nonzero" fill-opacity="1"></path><path clip-path="url(#clip940)" d="M2188.25 140.284 Q2187.54 139.868 2186.68 139.682 Q2185.85 139.474 2184.83 139.474 Q2181.22 139.474 2179.27 141.835 Q2177.35 144.173 2177.35 148.571 L2177.35 162.229 L2173.07 162.229 L2173.07 136.303 L2177.35 136.303 L2177.35 140.331 Q2178.69 137.969 2180.85 136.835 Q2183 135.678 2186.08 135.678 Q2186.52 135.678 2187.05 135.747 Q2187.58 135.794 2188.23 135.909 L2188.25 140.284 Z" fill="#000000" fill-rule="nonzero" fill-opacity="1"></path><path clip-path="url(#clip940)" d="M2206.91 140.284 Q2206.19 139.868 2205.34 139.682 Q2204.5 139.474 2203.49 139.474 Q2199.87 139.474 2197.93 141.835 Q2196.01 144.173 2196.01 148.571 L2196.01 162.229 L2191.73 162.229 L2191.73 136.303 L2196.01 136.303 L2196.01 140.331 Q2197.35 137.969 2199.5 136.835 Q2201.66 135.678 2204.74 135.678 Q2205.18 135.678 2205.71 135.747 Q2206.24 135.794 2206.89 135.909 L2206.91 140.284 Z" fill="#000000" fill-rule="nonzero" fill-opacity="1"></path><path clip-path="url(#clip940)" d="M2220.38 139.289 Q2216.96 139.289 2214.97 141.974 Q2212.98 144.636 2212.98 149.289 Q2212.98 153.942 2214.94 156.627 Q2216.93 159.289 2220.38 159.289 Q2223.79 159.289 2225.78 156.604 Q2227.77 153.918 2227.77 149.289 Q2227.77 144.682 2225.78 141.997 Q2223.79 139.289 2220.38 139.289 M2220.38 135.678 Q2225.94 135.678 2229.11 139.289 Q2232.28 142.9 2232.28 149.289 Q2232.28 155.655 2229.11 159.289 Q2225.94 162.9 2220.38 162.9 Q2214.8 162.9 2211.63 159.289 Q2208.49 155.655 2208.49 149.289 Q2208.49 142.9 2211.63 139.289 Q2214.8 135.678 2220.38 135.678 Z" fill="#000000" fill-rule="nonzero" fill-opacity="1"></path><path clip-path="url(#clip940)" d="M2254.36 140.284 Q2253.65 139.868 2252.79 139.682 Q2251.96 139.474 2250.94 139.474 Q2247.33 139.474 2245.38 141.835 Q2243.46 144.173 2243.46 148.571 L2243.46 162.229 L2239.18 162.229 L2239.18 136.303 L2243.46 136.303 L2243.46 140.331 Q2244.8 137.969 2246.96 136.835 Q2249.11 135.678 2252.19 135.678 Q2252.63 135.678 2253.16 135.747 Q2253.69 135.794 2254.34 135.909 L2254.36 140.284 Z" fill="#000000" fill-rule="nonzero" fill-opacity="1"></path></svg>