<svg xmlns="http://www.w3.org/2000/svg" xmlns:xlink="http://www.w3.org/1999/xlink" width="600" height="400" viewBox="0 0 2400 1600">
<defs>
  <clipPath id="clip980">
    <rect x="0" y="0" width="2400" height="1600"></rect>
  </clipPath>
</defs>
<path clip-path="url(#clip980)" d="M0 1600 L2400 1600 L2400 8.88178e-14 L0 8.88178e-14  Z" fill="#ffffff" fill-rule="evenodd" fill-opacity="1"></path>
<defs>
  <clipPath id="clip981">
    <rect x="480" y="0" width="1681" height="1600"></rect>
  </clipPath>
</defs>
<path clip-path="url(#clip980)" d="M140.696 1423.18 L2352.76 1423.18 L2352.76 47.2441 L140.696 47.2441  Z" fill="#ffffff" fill-rule="evenodd" fill-opacity="1"></path>
<defs>
  <clipPath id="clip982">
    <rect x="140" y="47" width="2213" height="1377"></rect>
  </clipPath>
</defs>
<polyline clip-path="url(#clip982)" style="stroke:#000000; stroke-linecap:round; stroke-linejoin:round; stroke-width:2; stroke-opacity:0.1; fill:none" points="413.803,1423.18 413.803,47.2441 "></polyline>
<polyline clip-path="url(#clip982)" style="stroke:#000000; stroke-linecap:round; stroke-linejoin:round; stroke-width:2; stroke-opacity:0.1; fill:none" points="716.684,1423.18 716.684,47.2441 "></polyline>
<polyline clip-path="url(#clip982)" style="stroke:#000000; stroke-linecap:round; stroke-linejoin:round; stroke-width:2; stroke-opacity:0.1; fill:none" points="1019.57,1423.18 1019.57,47.2441 "></polyline>
<polyline clip-path="url(#clip982)" style="stroke:#000000; stroke-linecap:round; stroke-linejoin:round; stroke-width:2; stroke-opacity:0.1; fill:none" points="1322.45,1423.18 1322.45,47.2441 "></polyline>
<polyline clip-path="url(#clip982)" style="stroke:#000000; stroke-linecap:round; stroke-linejoin:round; stroke-width:2; stroke-opacity:0.1; fill:none" points="1625.33,1423.18 1625.33,47.2441 "></polyline>
<polyline clip-path="url(#clip982)" style="stroke:#000000; stroke-linecap:round; stroke-linejoin:round; stroke-width:2; stroke-opacity:0.1; fill:none" points="1928.21,1423.18 1928.21,47.2441 "></polyline>
<polyline clip-path="url(#clip982)" style="stroke:#000000; stroke-linecap:round; stroke-linejoin:round; stroke-width:2; stroke-opacity:0.1; fill:none" points="2231.09,1423.18 2231.09,47.2441 "></polyline>
<polyline clip-path="url(#clip980)" style="stroke:#000000; stroke-linecap:round; stroke-linejoin:round; stroke-width:4; stroke-opacity:1; fill:none" points="140.696,1423.18 2352.76,1423.18 "></polyline>
<polyline clip-path="url(#clip980)" style="stroke:#000000; stroke-linecap:round; stroke-linejoin:round; stroke-width:4; stroke-opacity:1; fill:none" points="413.803,1423.18 413.803,1404.28 "></polyline>
<polyline clip-path="url(#clip980)" style="stroke:#000000; stroke-linecap:round; stroke-linejoin:round; stroke-width:4; stroke-opacity:1; fill:none" points="716.684,1423.18 716.684,1404.28 "></polyline>
<polyline clip-path="url(#clip980)" style="stroke:#000000; stroke-linecap:round; stroke-linejoin:round; stroke-width:4; stroke-opacity:1; fill:none" points="1019.57,1423.18 1019.57,1404.28 "></polyline>
<polyline clip-path="url(#clip980)" style="stroke:#000000; stroke-linecap:round; stroke-linejoin:round; stroke-width:4; stroke-opacity:1; fill:none" points="1322.45,1423.18 1322.45,1404.28 "></polyline>
<polyline clip-path="url(#clip980)" style="stroke:#000000; stroke-linecap:round; stroke-linejoin:round; stroke-width:4; stroke-opacity:1; fill:none" points="1625.33,1423.18 1625.33,1404.28 "></polyline>
<polyline clip-path="url(#clip980)" style="stroke:#000000; stroke-linecap:round; stroke-linejoin:round; stroke-width:4; stroke-opacity:1; fill:none" points="1928.21,1423.18 1928.21,1404.28 "></polyline>
<polyline clip-path="url(#clip980)" style="stroke:#000000; stroke-linecap:round; stroke-linejoin:round; stroke-width:4; stroke-opacity:1; fill:none" points="2231.09,1423.18 2231.09,1404.28 "></polyline>
<path clip-path="url(#clip980)" d="M346.558 1454.1 Q342.947 1454.1 341.118 1457.66 Q339.313 1461.2 339.313 1468.33 Q339.313 1475.44 341.118 1479.01 Q342.947 1482.55 346.558 1482.55 Q350.192 1482.55 351.998 1479.01 Q353.827 1475.44 353.827 1468.33 Q353.827 1461.2 351.998 1457.66 Q350.192 1454.1 346.558 1454.1 M346.558 1450.39 Q352.368 1450.39 355.424 1455 Q358.503 1459.58 358.503 1468.33 Q358.503 1477.06 355.424 1481.67 Q352.368 1486.25 346.558 1486.25 Q340.748 1486.25 337.669 1481.67 Q334.614 1477.06 334.614 1468.33 Q334.614 1459.58 337.669 1455 Q340.748 1450.39 346.558 1450.39 Z" fill="#000000" fill-rule="nonzero" fill-opacity="1"></path><path clip-path="url(#clip980)" d="M366.72 1479.7 L371.604 1479.7 L371.604 1485.58 L366.72 1485.58 L366.72 1479.7 Z" fill="#000000" fill-rule="nonzero" fill-opacity="1"></path><path clip-path="url(#clip980)" d="M391.789 1454.1 Q388.178 1454.1 386.35 1457.66 Q384.544 1461.2 384.544 1468.33 Q384.544 1475.44 386.35 1479.01 Q388.178 1482.55 391.789 1482.55 Q395.424 1482.55 397.229 1479.01 Q399.058 1475.44 399.058 1468.33 Q399.058 1461.2 397.229 1457.66 Q395.424 1454.1 391.789 1454.1 M391.789 1450.39 Q397.6 1450.39 400.655 1455 Q403.734 1459.58 403.734 1468.33 Q403.734 1477.06 400.655 1481.67 Q397.6 1486.25 391.789 1486.25 Q385.979 1486.25 382.901 1481.67 Q379.845 1477.06 379.845 1468.33 Q379.845 1459.58 382.901 1455 Q385.979 1450.39 391.789 1450.39 Z" fill="#000000" fill-rule="nonzero" fill-opacity="1"></path><path clip-path="url(#clip980)" d="M421.951 1454.1 Q418.34 1454.1 416.512 1457.66 Q414.706 1461.2 414.706 1468.33 Q414.706 1475.44 416.512 1479.01 Q418.34 1482.55 421.951 1482.55 Q425.586 1482.55 427.391 1479.01 Q429.22 1475.44 429.22 1468.33 Q429.22 1461.2 427.391 1457.66 Q425.586 1454.1 421.951 1454.1 M421.951 1450.39 Q427.762 1450.39 430.817 1455 Q433.896 1459.58 433.896 1468.33 Q433.896 1477.06 430.817 1481.67 Q427.762 1486.25 421.951 1486.25 Q416.141 1486.25 413.063 1481.67 Q410.007 1477.06 410.007 1468.33 Q410.007 1459.58 413.063 1455 Q416.141 1450.39 421.951 1450.39 Z" fill="#000000" fill-rule="nonzero" fill-opacity="1"></path><path clip-path="url(#clip980)" d="M452.113 1454.1 Q448.502 1454.1 446.673 1457.66 Q444.868 1461.2 444.868 1468.33 Q444.868 1475.44 446.673 1479.01 Q448.502 1482.55 452.113 1482.55 Q455.747 1482.55 457.553 1479.01 Q459.382 1475.44 459.382 1468.33 Q459.382 1461.2 457.553 1457.66 Q455.747 1454.1 452.113 1454.1 M452.113 1450.39 Q457.923 1450.39 460.979 1455 Q464.058 1459.58 464.058 1468.33 Q464.058 1477.06 460.979 1481.67 Q457.923 1486.25 452.113 1486.25 Q446.303 1486.25 443.224 1481.67 Q440.169 1477.06 440.169 1468.33 Q440.169 1459.58 443.224 1455 Q446.303 1450.39 452.113 1450.39 Z" fill="#000000" fill-rule="nonzero" fill-opacity="1"></path><path clip-path="url(#clip980)" d="M473.085 1481.64 L480.724 1481.64 L480.724 1455.28 L472.414 1456.95 L472.414 1452.69 L480.678 1451.02 L485.354 1451.02 L485.354 1481.64 L492.993 1481.64 L492.993 1485.58 L473.085 1485.58 L473.085 1481.64 Z" fill="#000000" fill-rule="nonzero" fill-opacity="1"></path><path clip-path="url(#clip980)" d="M649.624 1454.1 Q646.013 1454.1 644.185 1457.66 Q642.379 1461.2 642.379 1468.33 Q642.379 1475.44 644.185 1479.01 Q646.013 1482.55 649.624 1482.55 Q653.259 1482.55 655.064 1479.01 Q656.893 1475.44 656.893 1468.33 Q656.893 1461.2 655.064 1457.66 Q653.259 1454.1 649.624 1454.1 M649.624 1450.39 Q655.434 1450.39 658.49 1455 Q661.569 1459.58 661.569 1468.33 Q661.569 1477.06 658.49 1481.67 Q655.434 1486.25 649.624 1486.25 Q643.814 1486.25 640.735 1481.67 Q637.68 1477.06 637.68 1468.33 Q637.68 1459.58 640.735 1455 Q643.814 1450.39 649.624 1450.39 Z" fill="#000000" fill-rule="nonzero" fill-opacity="1"></path><path clip-path="url(#clip980)" d="M669.786 1479.7 L674.67 1479.7 L674.67 1485.58 L669.786 1485.58 L669.786 1479.7 Z" fill="#000000" fill-rule="nonzero" fill-opacity="1"></path><path clip-path="url(#clip980)" d="M694.856 1454.1 Q691.244 1454.1 689.416 1457.66 Q687.61 1461.2 687.61 1468.33 Q687.61 1475.44 689.416 1479.01 Q691.244 1482.55 694.856 1482.55 Q698.49 1482.55 700.295 1479.01 Q702.124 1475.44 702.124 1468.33 Q702.124 1461.2 700.295 1457.66 Q698.49 1454.1 694.856 1454.1 M694.856 1450.39 Q700.666 1450.39 703.721 1455 Q706.8 1459.58 706.8 1468.33 Q706.8 1477.06 703.721 1481.67 Q700.666 1486.25 694.856 1486.25 Q689.045 1486.25 685.967 1481.67 Q682.911 1477.06 682.911 1468.33 Q682.911 1459.58 685.967 1455 Q689.045 1450.39 694.856 1450.39 Z" fill="#000000" fill-rule="nonzero" fill-opacity="1"></path><path clip-path="url(#clip980)" d="M725.017 1454.1 Q721.406 1454.1 719.578 1457.66 Q717.772 1461.2 717.772 1468.33 Q717.772 1475.44 719.578 1479.01 Q721.406 1482.55 725.017 1482.55 Q728.652 1482.55 730.457 1479.01 Q732.286 1475.44 732.286 1468.33 Q732.286 1461.2 730.457 1457.66 Q728.652 1454.1 725.017 1454.1 M725.017 1450.39 Q730.828 1450.39 733.883 1455 Q736.962 1459.58 736.962 1468.33 Q736.962 1477.06 733.883 1481.67 Q730.828 1486.25 725.017 1486.25 Q719.207 1486.25 716.129 1481.67 Q713.073 1477.06 713.073 1468.33 Q713.073 1459.58 716.129 1455 Q719.207 1450.39 725.017 1450.39 Z" fill="#000000" fill-rule="nonzero" fill-opacity="1"></path><path clip-path="url(#clip980)" d="M755.179 1454.1 Q751.568 1454.1 749.74 1457.66 Q747.934 1461.2 747.934 1468.33 Q747.934 1475.44 749.74 1479.01 Q751.568 1482.55 755.179 1482.55 Q758.814 1482.55 760.619 1479.01 Q762.448 1475.44 762.448 1468.33 Q762.448 1461.2 760.619 1457.66 Q758.814 1454.1 755.179 1454.1 M755.179 1450.39 Q760.989 1450.39 764.045 1455 Q767.124 1459.58 767.124 1468.33 Q767.124 1477.06 764.045 1481.67 Q760.989 1486.25 755.179 1486.25 Q749.369 1486.25 746.29 1481.67 Q743.235 1477.06 743.235 1468.33 Q743.235 1459.58 746.29 1455 Q749.369 1450.39 755.179 1450.39 Z" fill="#000000" fill-rule="nonzero" fill-opacity="1"></path><path clip-path="url(#clip980)" d="M779.369 1481.64 L795.688 1481.64 L795.688 1485.58 L773.744 1485.58 L773.744 1481.64 Q776.406 1478.89 780.989 1474.26 Q785.596 1469.61 786.776 1468.27 Q789.022 1465.74 789.901 1464.01 Q790.804 1462.25 790.804 1460.56 Q790.804 1457.8 788.86 1456.07 Q786.938 1454.33 783.837 1454.33 Q781.638 1454.33 779.184 1455.09 Q776.753 1455.86 773.976 1457.41 L773.976 1452.69 Q776.8 1451.55 779.253 1450.97 Q781.707 1450.39 783.744 1450.39 Q789.114 1450.39 792.309 1453.08 Q795.503 1455.77 795.503 1460.26 Q795.503 1462.39 794.693 1464.31 Q793.906 1466.2 791.799 1468.8 Q791.221 1469.47 788.119 1472.69 Q785.017 1475.88 779.369 1481.64 Z" fill="#000000" fill-rule="nonzero" fill-opacity="1"></path><path clip-path="url(#clip980)" d="M952.031 1454.1 Q948.42 1454.1 946.591 1457.66 Q944.785 1461.2 944.785 1468.33 Q944.785 1475.44 946.591 1479.01 Q948.42 1482.55 952.031 1482.55 Q955.665 1482.55 957.47 1479.01 Q959.299 1475.44 959.299 1468.33 Q959.299 1461.2 957.47 1457.66 Q955.665 1454.1 952.031 1454.1 M952.031 1450.39 Q957.841 1450.39 960.896 1455 Q963.975 1459.58 963.975 1468.33 Q963.975 1477.06 960.896 1481.67 Q957.841 1486.25 952.031 1486.25 Q946.221 1486.25 943.142 1481.67 Q940.086 1477.06 940.086 1468.33 Q940.086 1459.58 943.142 1455 Q946.221 1450.39 952.031 1450.39 Z" fill="#000000" fill-rule="nonzero" fill-opacity="1"></path><path clip-path="url(#clip980)" d="M972.193 1479.7 L977.077 1479.7 L977.077 1485.58 L972.193 1485.58 L972.193 1479.7 Z" fill="#000000" fill-rule="nonzero" fill-opacity="1"></path><path clip-path="url(#clip980)" d="M997.262 1454.1 Q993.651 1454.1 991.822 1457.66 Q990.017 1461.2 990.017 1468.33 Q990.017 1475.44 991.822 1479.01 Q993.651 1482.55 997.262 1482.55 Q1000.9 1482.55 1002.7 1479.01 Q1004.53 1475.44 1004.53 1468.33 Q1004.53 1461.2 1002.7 1457.66 Q1000.9 1454.1 997.262 1454.1 M997.262 1450.39 Q1003.07 1450.39 1006.13 1455 Q1009.21 1459.58 1009.21 1468.33 Q1009.21 1477.06 1006.13 1481.67 Q1003.07 1486.25 997.262 1486.25 Q991.452 1486.25 988.373 1481.67 Q985.318 1477.06 985.318 1468.33 Q985.318 1459.58 988.373 1455 Q991.452 1450.39 997.262 1450.39 Z" fill="#000000" fill-rule="nonzero" fill-opacity="1"></path><path clip-path="url(#clip980)" d="M1027.42 1454.1 Q1023.81 1454.1 1021.98 1457.66 Q1020.18 1461.2 1020.18 1468.33 Q1020.18 1475.44 1021.98 1479.01 Q1023.81 1482.55 1027.42 1482.55 Q1031.06 1482.55 1032.86 1479.01 Q1034.69 1475.44 1034.69 1468.33 Q1034.69 1461.2 1032.86 1457.66 Q1031.06 1454.1 1027.42 1454.1 M1027.42 1450.39 Q1033.23 1450.39 1036.29 1455 Q1039.37 1459.58 1039.37 1468.33 Q1039.37 1477.06 1036.29 1481.67 Q1033.23 1486.25 1027.42 1486.25 Q1021.61 1486.25 1018.53 1481.67 Q1015.48 1477.06 1015.48 1468.33 Q1015.48 1459.58 1018.53 1455 Q1021.61 1450.39 1027.42 1450.39 Z" fill="#000000" fill-rule="nonzero" fill-opacity="1"></path><path clip-path="url(#clip980)" d="M1057.59 1454.1 Q1053.97 1454.1 1052.15 1457.66 Q1050.34 1461.2 1050.34 1468.33 Q1050.34 1475.44 1052.15 1479.01 Q1053.97 1482.55 1057.59 1482.55 Q1061.22 1482.55 1063.03 1479.01 Q1064.85 1475.44 1064.85 1468.33 Q1064.85 1461.2 1063.03 1457.66 Q1061.22 1454.1 1057.59 1454.1 M1057.59 1450.39 Q1063.4 1450.39 1066.45 1455 Q1069.53 1459.58 1069.53 1468.33 Q1069.53 1477.06 1066.45 1481.67 Q1063.4 1486.25 1057.59 1486.25 Q1051.78 1486.25 1048.7 1481.67 Q1045.64 1477.06 1045.64 1468.33 Q1045.64 1459.58 1048.7 1455 Q1051.78 1450.39 1057.59 1450.39 Z" fill="#000000" fill-rule="nonzero" fill-opacity="1"></path><path clip-path="url(#clip980)" d="M1091.91 1466.95 Q1095.27 1467.66 1097.15 1469.93 Q1099.04 1472.2 1099.04 1475.53 Q1099.04 1480.65 1095.53 1483.45 Q1092.01 1486.25 1085.53 1486.25 Q1083.35 1486.25 1081.03 1485.81 Q1078.74 1485.39 1076.29 1484.54 L1076.29 1480.02 Q1078.23 1481.16 1080.55 1481.74 Q1082.86 1482.32 1085.39 1482.32 Q1089.78 1482.32 1092.08 1480.58 Q1094.39 1478.84 1094.39 1475.53 Q1094.39 1472.48 1092.24 1470.77 Q1090.11 1469.03 1086.29 1469.03 L1082.26 1469.03 L1082.26 1465.19 L1086.47 1465.19 Q1089.92 1465.19 1091.75 1463.82 Q1093.58 1462.43 1093.58 1459.84 Q1093.58 1457.18 1091.68 1455.77 Q1089.81 1454.33 1086.29 1454.33 Q1084.37 1454.33 1082.17 1454.75 Q1079.97 1455.16 1077.33 1456.04 L1077.33 1451.88 Q1079.99 1451.14 1082.31 1450.77 Q1084.65 1450.39 1086.71 1450.39 Q1092.03 1450.39 1095.13 1452.83 Q1098.23 1455.23 1098.23 1459.35 Q1098.23 1462.22 1096.59 1464.21 Q1094.95 1466.18 1091.91 1466.95 Z" fill="#000000" fill-rule="nonzero" fill-opacity="1"></path><path clip-path="url(#clip980)" d="M1254.34 1454.1 Q1250.73 1454.1 1248.9 1457.66 Q1247.1 1461.2 1247.1 1468.33 Q1247.1 1475.44 1248.9 1479.01 Q1250.73 1482.55 1254.34 1482.55 Q1257.98 1482.55 1259.78 1479.01 Q1261.61 1475.44 1261.61 1468.33 Q1261.61 1461.2 1259.78 1457.66 Q1257.98 1454.1 1254.34 1454.1 M1254.34 1450.39 Q1260.15 1450.39 1263.21 1455 Q1266.29 1459.58 1266.29 1468.33 Q1266.29 1477.06 1263.21 1481.67 Q1260.15 1486.25 1254.34 1486.25 Q1248.53 1486.25 1245.46 1481.67 Q1242.4 1477.06 1242.4 1468.33 Q1242.4 1459.58 1245.46 1455 Q1248.53 1450.39 1254.34 1450.39 Z" fill="#000000" fill-rule="nonzero" fill-opacity="1"></path><path clip-path="url(#clip980)" d="M1274.51 1479.7 L1279.39 1479.7 L1279.39 1485.58 L1274.51 1485.58 L1274.51 1479.7 Z" fill="#000000" fill-rule="nonzero" fill-opacity="1"></path><path clip-path="url(#clip980)" d="M1299.58 1454.1 Q1295.96 1454.1 1294.14 1457.66 Q1292.33 1461.2 1292.33 1468.33 Q1292.33 1475.44 1294.14 1479.01 Q1295.96 1482.55 1299.58 1482.55 Q1303.21 1482.55 1305.02 1479.01 Q1306.84 1475.44 1306.84 1468.33 Q1306.84 1461.2 1305.02 1457.66 Q1303.21 1454.1 1299.58 1454.1 M1299.58 1450.39 Q1305.39 1450.39 1308.44 1455 Q1311.52 1459.58 1311.52 1468.33 Q1311.52 1477.06 1308.44 1481.67 Q1305.39 1486.25 1299.58 1486.25 Q1293.77 1486.25 1290.69 1481.67 Q1287.63 1477.06 1287.63 1468.33 Q1287.63 1459.58 1290.69 1455 Q1293.77 1450.39 1299.58 1450.39 Z" fill="#000000" fill-rule="nonzero" fill-opacity="1"></path><path clip-path="url(#clip980)" d="M1329.74 1454.1 Q1326.13 1454.1 1324.3 1457.66 Q1322.49 1461.2 1322.49 1468.33 Q1322.49 1475.44 1324.3 1479.01 Q1326.13 1482.55 1329.74 1482.55 Q1333.37 1482.55 1335.18 1479.01 Q1337.01 1475.44 1337.01 1468.33 Q1337.01 1461.2 1335.18 1457.66 Q1333.37 1454.1 1329.74 1454.1 M1329.74 1450.39 Q1335.55 1450.39 1338.6 1455 Q1341.68 1459.58 1341.68 1468.33 Q1341.68 1477.06 1338.6 1481.67 Q1335.55 1486.25 1329.74 1486.25 Q1323.93 1486.25 1320.85 1481.67 Q1317.79 1477.06 1317.79 1468.33 Q1317.79 1459.58 1320.85 1455 Q1323.93 1450.39 1329.74 1450.39 Z" fill="#000000" fill-rule="nonzero" fill-opacity="1"></path><path clip-path="url(#clip980)" d="M1359.9 1454.1 Q1356.29 1454.1 1354.46 1457.66 Q1352.65 1461.2 1352.65 1468.33 Q1352.65 1475.44 1354.46 1479.01 Q1356.29 1482.55 1359.9 1482.55 Q1363.53 1482.55 1365.34 1479.01 Q1367.17 1475.44 1367.17 1468.33 Q1367.17 1461.2 1365.34 1457.66 Q1363.53 1454.1 1359.9 1454.1 M1359.9 1450.39 Q1365.71 1450.39 1368.77 1455 Q1371.84 1459.58 1371.84 1468.33 Q1371.84 1477.06 1368.77 1481.67 Q1365.71 1486.25 1359.9 1486.25 Q1354.09 1486.25 1351.01 1481.67 Q1347.96 1477.06 1347.96 1468.33 Q1347.96 1459.58 1351.01 1455 Q1354.09 1450.39 1359.9 1450.39 Z" fill="#000000" fill-rule="nonzero" fill-opacity="1"></path><path clip-path="url(#clip980)" d="M1392.91 1455.09 L1381.1 1473.54 L1392.91 1473.54 L1392.91 1455.09 M1391.68 1451.02 L1397.56 1451.02 L1397.56 1473.54 L1402.49 1473.54 L1402.49 1477.43 L1397.56 1477.43 L1397.56 1485.58 L1392.91 1485.58 L1392.91 1477.43 L1377.31 1477.43 L1377.31 1472.92 L1391.68 1451.02 Z" fill="#000000" fill-rule="nonzero" fill-opacity="1"></path><path clip-path="url(#clip980)" d="M1557.97 1454.1 Q1554.36 1454.1 1552.53 1457.66 Q1550.72 1461.2 1550.72 1468.33 Q1550.72 1475.44 1552.53 1479.01 Q1554.36 1482.55 1557.97 1482.55 Q1561.6 1482.55 1563.41 1479.01 Q1565.23 1475.44 1565.23 1468.33 Q1565.23 1461.2 1563.41 1457.66 Q1561.6 1454.1 1557.97 1454.1 M1557.97 1450.39 Q1563.78 1450.39 1566.83 1455 Q1569.91 1459.58 1569.91 1468.33 Q1569.91 1477.06 1566.83 1481.67 Q1563.78 1486.25 1557.97 1486.25 Q1552.16 1486.25 1549.08 1481.67 Q1546.02 1477.06 1546.02 1468.33 Q1546.02 1459.58 1549.08 1455 Q1552.16 1450.39 1557.97 1450.39 Z" fill="#000000" fill-rule="nonzero" fill-opacity="1"></path><path clip-path="url(#clip980)" d="M1578.13 1479.7 L1583.01 1479.7 L1583.01 1485.58 L1578.13 1485.58 L1578.13 1479.7 Z" fill="#000000" fill-rule="nonzero" fill-opacity="1"></path><path clip-path="url(#clip980)" d="M1603.2 1454.1 Q1599.59 1454.1 1597.76 1457.66 Q1595.95 1461.2 1595.95 1468.33 Q1595.95 1475.44 1597.76 1479.01 Q1599.59 1482.55 1603.2 1482.55 Q1606.83 1482.55 1608.64 1479.01 Q1610.47 1475.44 1610.47 1468.33 Q1610.47 1461.2 1608.64 1457.66 Q1606.83 1454.1 1603.2 1454.1 M1603.2 1450.39 Q1609.01 1450.39 1612.06 1455 Q1615.14 1459.58 1615.14 1468.33 Q1615.14 1477.06 1612.06 1481.67 Q1609.01 1486.25 1603.2 1486.25 Q1597.39 1486.25 1594.31 1481.67 Q1591.25 1477.06 1591.25 1468.33 Q1591.25 1459.58 1594.31 1455 Q1597.39 1450.39 1603.2 1450.39 Z" fill="#000000" fill-rule="nonzero" fill-opacity="1"></path><path clip-path="url(#clip980)" d="M1633.36 1454.1 Q1629.75 1454.1 1627.92 1457.66 Q1626.11 1461.2 1626.11 1468.33 Q1626.11 1475.44 1627.92 1479.01 Q1629.75 1482.55 1633.36 1482.55 Q1636.99 1482.55 1638.8 1479.01 Q1640.63 1475.44 1640.63 1468.33 Q1640.63 1461.2 1638.8 1457.66 Q1636.99 1454.1 1633.36 1454.1 M1633.36 1450.39 Q1639.17 1450.39 1642.22 1455 Q1645.3 1459.58 1645.3 1468.33 Q1645.3 1477.06 1642.22 1481.67 Q1639.17 1486.25 1633.36 1486.25 Q1627.55 1486.25 1624.47 1481.67 Q1621.41 1477.06 1621.41 1468.33 Q1621.41 1459.58 1624.47 1455 Q1627.55 1450.39 1633.36 1450.39 Z" fill="#000000" fill-rule="nonzero" fill-opacity="1"></path><path clip-path="url(#clip980)" d="M1663.52 1454.1 Q1659.91 1454.1 1658.08 1457.66 Q1656.28 1461.2 1656.28 1468.33 Q1656.28 1475.44 1658.08 1479.01 Q1659.91 1482.55 1663.52 1482.55 Q1667.16 1482.55 1668.96 1479.01 Q1670.79 1475.44 1670.79 1468.33 Q1670.79 1461.2 1668.96 1457.66 Q1667.16 1454.1 1663.52 1454.1 M1663.52 1450.39 Q1669.33 1450.39 1672.39 1455 Q1675.47 1459.58 1675.47 1468.33 Q1675.47 1477.06 1672.39 1481.67 Q1669.33 1486.25 1663.52 1486.25 Q1657.71 1486.25 1654.63 1481.67 Q1651.58 1477.06 1651.58 1468.33 Q1651.58 1459.58 1654.63 1455 Q1657.71 1450.39 1663.52 1450.39 Z" fill="#000000" fill-rule="nonzero" fill-opacity="1"></path><path clip-path="url(#clip980)" d="M1683.73 1451.02 L1702.09 1451.02 L1702.09 1454.96 L1688.01 1454.96 L1688.01 1463.43 Q1689.03 1463.08 1690.05 1462.92 Q1691.07 1462.73 1692.09 1462.73 Q1697.87 1462.73 1701.25 1465.9 Q1704.63 1469.08 1704.63 1474.49 Q1704.63 1480.07 1701.16 1483.17 Q1697.69 1486.25 1691.37 1486.25 Q1689.19 1486.25 1686.92 1485.88 Q1684.68 1485.51 1682.27 1484.77 L1682.27 1480.07 Q1684.35 1481.2 1686.58 1481.76 Q1688.8 1482.32 1691.28 1482.32 Q1695.28 1482.32 1697.62 1480.21 Q1699.96 1478.1 1699.96 1474.49 Q1699.96 1470.88 1697.62 1468.77 Q1695.28 1466.67 1691.28 1466.67 Q1689.4 1466.67 1687.53 1467.08 Q1685.67 1467.5 1683.73 1468.38 L1683.73 1451.02 Z" fill="#000000" fill-rule="nonzero" fill-opacity="1"></path><path clip-path="url(#clip980)" d="M1860.27 1454.1 Q1856.66 1454.1 1854.83 1457.66 Q1853.02 1461.2 1853.02 1468.33 Q1853.02 1475.44 1854.83 1479.01 Q1856.66 1482.55 1860.27 1482.55 Q1863.9 1482.55 1865.71 1479.01 Q1867.54 1475.44 1867.54 1468.33 Q1867.54 1461.2 1865.71 1457.66 Q1863.9 1454.1 1860.27 1454.1 M1860.27 1450.39 Q1866.08 1450.39 1869.13 1455 Q1872.21 1459.58 1872.21 1468.33 Q1872.21 1477.06 1869.13 1481.67 Q1866.08 1486.25 1860.27 1486.25 Q1854.46 1486.25 1851.38 1481.67 Q1848.32 1477.06 1848.32 1468.33 Q1848.32 1459.58 1851.38 1455 Q1854.46 1450.39 1860.27 1450.39 Z" fill="#000000" fill-rule="nonzero" fill-opacity="1"></path><path clip-path="url(#clip980)" d="M1880.43 1479.7 L1885.31 1479.7 L1885.31 1485.58 L1880.43 1485.58 L1880.43 1479.7 Z" fill="#000000" fill-rule="nonzero" fill-opacity="1"></path><path clip-path="url(#clip980)" d="M1905.5 1454.1 Q1901.89 1454.1 1900.06 1457.66 Q1898.25 1461.2 1898.25 1468.33 Q1898.25 1475.44 1900.06 1479.01 Q1901.89 1482.55 1905.5 1482.55 Q1909.13 1482.55 1910.94 1479.01 Q1912.77 1475.44 1912.77 1468.33 Q1912.77 1461.2 1910.94 1457.66 Q1909.13 1454.1 1905.5 1454.1 M1905.5 1450.39 Q1911.31 1450.39 1914.37 1455 Q1917.44 1459.58 1917.44 1468.33 Q1917.44 1477.06 1914.37 1481.67 Q1911.31 1486.25 1905.5 1486.25 Q1899.69 1486.25 1896.61 1481.67 Q1893.56 1477.06 1893.56 1468.33 Q1893.56 1459.58 1896.61 1455 Q1899.69 1450.39 1905.5 1450.39 Z" fill="#000000" fill-rule="nonzero" fill-opacity="1"></path><path clip-path="url(#clip980)" d="M1935.66 1454.1 Q1932.05 1454.1 1930.22 1457.66 Q1928.42 1461.2 1928.42 1468.33 Q1928.42 1475.44 1930.22 1479.01 Q1932.05 1482.55 1935.66 1482.55 Q1939.3 1482.55 1941.1 1479.01 Q1942.93 1475.44 1942.93 1468.33 Q1942.93 1461.2 1941.1 1457.66 Q1939.3 1454.1 1935.66 1454.1 M1935.66 1450.39 Q1941.47 1450.39 1944.53 1455 Q1947.61 1459.58 1947.61 1468.33 Q1947.61 1477.06 1944.53 1481.67 Q1941.47 1486.25 1935.66 1486.25 Q1929.85 1486.25 1926.77 1481.67 Q1923.72 1477.06 1923.72 1468.33 Q1923.72 1459.58 1926.77 1455 Q1929.85 1450.39 1935.66 1450.39 Z" fill="#000000" fill-rule="nonzero" fill-opacity="1"></path><path clip-path="url(#clip980)" d="M1965.82 1454.1 Q1962.21 1454.1 1960.38 1457.66 Q1958.58 1461.2 1958.58 1468.33 Q1958.58 1475.44 1960.38 1479.01 Q1962.21 1482.55 1965.82 1482.55 Q1969.46 1482.55 1971.26 1479.01 Q1973.09 1475.44 1973.09 1468.33 Q1973.09 1461.2 1971.26 1457.66 Q1969.46 1454.1 1965.82 1454.1 M1965.82 1450.39 Q1971.63 1450.39 1974.69 1455 Q1977.77 1459.58 1977.77 1468.33 Q1977.77 1477.06 1974.69 1481.67 Q1971.63 1486.25 1965.82 1486.25 Q1960.01 1486.25 1956.93 1481.67 Q1953.88 1477.06 1953.88 1468.33 Q1953.88 1459.58 1956.93 1455 Q1960.01 1450.39 1965.82 1450.39 Z" fill="#000000" fill-rule="nonzero" fill-opacity="1"></path><path clip-path="url(#clip980)" d="M1996.56 1466.44 Q1993.42 1466.44 1991.56 1468.59 Q1989.74 1470.74 1989.74 1474.49 Q1989.74 1478.22 1991.56 1480.39 Q1993.42 1482.55 1996.56 1482.55 Q1999.71 1482.55 2001.54 1480.39 Q2003.39 1478.22 2003.39 1474.49 Q2003.39 1470.74 2001.54 1468.59 Q1999.71 1466.44 1996.56 1466.44 M2005.85 1451.78 L2005.85 1456.04 Q2004.09 1455.21 2002.28 1454.77 Q2000.5 1454.33 1998.74 1454.33 Q1994.11 1454.33 1991.66 1457.45 Q1989.23 1460.58 1988.88 1466.9 Q1990.24 1464.89 1992.3 1463.82 Q1994.36 1462.73 1996.84 1462.73 Q2002.05 1462.73 2005.06 1465.9 Q2008.09 1469.05 2008.09 1474.49 Q2008.09 1479.82 2004.94 1483.03 Q2001.8 1486.25 1996.56 1486.25 Q1990.57 1486.25 1987.4 1481.67 Q1984.23 1477.06 1984.23 1468.33 Q1984.23 1460.14 1988.11 1455.28 Q1992 1450.39 1998.55 1450.39 Q2000.31 1450.39 2002.1 1450.74 Q2003.9 1451.09 2005.85 1451.78 Z" fill="#000000" fill-rule="nonzero" fill-opacity="1"></path><path clip-path="url(#clip980)" d="M2163.68 1454.1 Q2160.07 1454.1 2158.24 1457.66 Q2156.44 1461.2 2156.44 1468.33 Q2156.44 1475.44 2158.24 1479.01 Q2160.07 1482.55 2163.68 1482.55 Q2167.32 1482.55 2169.12 1479.01 Q2170.95 1475.44 2170.95 1468.33 Q2170.95 1461.2 2169.12 1457.66 Q2167.32 1454.1 2163.68 1454.1 M2163.68 1450.39 Q2169.49 1450.39 2172.55 1455 Q2175.63 1459.58 2175.63 1468.33 Q2175.63 1477.06 2172.55 1481.67 Q2169.49 1486.25 2163.68 1486.25 Q2157.87 1486.25 2154.79 1481.67 Q2151.74 1477.06 2151.74 1468.33 Q2151.74 1459.58 2154.79 1455 Q2157.87 1450.39 2163.68 1450.39 Z" fill="#000000" fill-rule="nonzero" fill-opacity="1"></path><path clip-path="url(#clip980)" d="M2183.84 1479.7 L2188.73 1479.7 L2188.73 1485.58 L2183.84 1485.58 L2183.84 1479.7 Z" fill="#000000" fill-rule="nonzero" fill-opacity="1"></path><path clip-path="url(#clip980)" d="M2208.91 1454.1 Q2205.3 1454.1 2203.47 1457.66 Q2201.67 1461.2 2201.67 1468.33 Q2201.67 1475.44 2203.47 1479.01 Q2205.3 1482.55 2208.91 1482.55 Q2212.55 1482.55 2214.35 1479.01 Q2216.18 1475.44 2216.18 1468.33 Q2216.18 1461.2 2214.35 1457.66 Q2212.55 1454.1 2208.91 1454.1 M2208.91 1450.39 Q2214.72 1450.39 2217.78 1455 Q2220.86 1459.58 2220.86 1468.33 Q2220.86 1477.06 2217.78 1481.67 Q2214.72 1486.25 2208.91 1486.25 Q2203.1 1486.25 2200.02 1481.67 Q2196.97 1477.06 2196.97 1468.33 Q2196.97 1459.58 2200.02 1455 Q2203.1 1450.39 2208.91 1450.39 Z" fill="#000000" fill-rule="nonzero" fill-opacity="1"></path><path clip-path="url(#clip980)" d="M2239.07 1454.1 Q2235.46 1454.1 2233.63 1457.66 Q2231.83 1461.2 2231.83 1468.33 Q2231.83 1475.44 2233.63 1479.01 Q2235.46 1482.55 2239.07 1482.55 Q2242.71 1482.55 2244.51 1479.01 Q2246.34 1475.44 2246.34 1468.33 Q2246.34 1461.2 2244.51 1457.66 Q2242.71 1454.1 2239.07 1454.1 M2239.07 1450.39 Q2244.88 1450.39 2247.94 1455 Q2251.02 1459.58 2251.02 1468.33 Q2251.02 1477.06 2247.94 1481.67 Q2244.88 1486.25 2239.07 1486.25 Q2233.26 1486.25 2230.19 1481.67 Q2227.13 1477.06 2227.13 1468.33 Q2227.13 1459.58 2230.19 1455 Q2233.26 1450.39 2239.07 1450.39 Z" fill="#000000" fill-rule="nonzero" fill-opacity="1"></path><path clip-path="url(#clip980)" d="M2269.24 1454.1 Q2265.63 1454.1 2263.8 1457.66 Q2261.99 1461.2 2261.99 1468.33 Q2261.99 1475.44 2263.8 1479.01 Q2265.63 1482.55 2269.24 1482.55 Q2272.87 1482.55 2274.68 1479.01 Q2276.51 1475.44 2276.51 1468.33 Q2276.51 1461.2 2274.68 1457.66 Q2272.87 1454.1 2269.24 1454.1 M2269.24 1450.39 Q2275.05 1450.39 2278.1 1455 Q2281.18 1459.58 2281.18 1468.33 Q2281.18 1477.06 2278.1 1481.67 Q2275.05 1486.25 2269.24 1486.25 Q2263.43 1486.25 2260.35 1481.67 Q2257.29 1477.06 2257.29 1468.33 Q2257.29 1459.58 2260.35 1455 Q2263.43 1450.39 2269.24 1450.39 Z" fill="#000000" fill-rule="nonzero" fill-opacity="1"></path><path clip-path="url(#clip980)" d="M2288.22 1451.02 L2310.44 1451.02 L2310.44 1453.01 L2297.89 1485.58 L2293.01 1485.58 L2304.82 1454.96 L2288.22 1454.96 L2288.22 1451.02 Z" fill="#000000" fill-rule="nonzero" fill-opacity="1"></path><path clip-path="url(#clip980)" d="M1016.82 1568.66 Q1016.82 1569.2 1016.43 1569.59 Q1016.05 1569.98 1015.5 1569.98 Q1014.57 1569.98 1014.24 1569.11 L1001.97 1537.45 Q1001.91 1537.32 1001.91 1537 Q1001.91 1536.68 1001.97 1536.55 L1014.24 1504.89 Q1014.57 1504.02 1015.5 1504.02 Q1016.05 1504.02 1016.43 1504.41 Q1016.82 1504.79 1016.82 1505.34 Q1016.82 1505.66 1016.76 1505.79 L1004.61 1537 L1016.76 1568.21 Q1016.82 1568.34 1016.82 1568.66 Z" fill="#000000" fill-rule="nonzero" fill-opacity="1"></path><path clip-path="url(#clip980)" d="M1027.3 1567.95 L1027.3 1506.53 Q1027.3 1504.08 1028.62 1504.08 Q1029.94 1504.08 1029.94 1506.05 L1029.94 1567.47 Q1029.94 1569.91 1028.62 1569.91 Q1027.3 1569.91 1027.3 1567.95 Z" fill="#000000" fill-rule="nonzero" fill-opacity="1"></path><path clip-path="url(#clip980)" d="M1088.44 1544.05 Q1087.6 1548.21 1086.47 1550.59 Q1084.64 1554.23 1081.58 1554.23 Q1079.45 1554.23 1077.84 1553.04 Q1076.27 1551.81 1075.72 1549.78 Q1075.11 1550.59 1074.56 1551.14 Q1074.04 1551.68 1073.04 1552.52 Q1072.05 1553.33 1070.69 1553.78 Q1069.37 1554.23 1067.86 1554.23 Q1066.7 1554.23 1065.64 1554 Q1064.57 1553.81 1063.45 1553.26 Q1062.35 1552.68 1061.55 1551.81 Q1060.77 1550.94 1060.26 1549.53 Q1059.74 1548.11 1059.74 1546.31 Q1059.74 1544.05 1060.61 1540.99 Q1061.51 1537.93 1063.58 1532.46 Q1064.7 1529.56 1064.7 1527.95 Q1064.7 1527.21 1064.54 1526.73 Q1064.38 1526.24 1064.06 1526.08 Q1063.77 1525.89 1063.58 1525.86 Q1063.38 1525.79 1063.06 1525.79 Q1061.06 1525.79 1059.32 1527.82 Q1057.59 1529.85 1056.39 1533.97 Q1056.14 1534.78 1055.98 1534.97 Q1055.81 1535.16 1055.33 1535.16 Q1054.53 1535.13 1054.53 1534.49 Q1054.53 1534.23 1054.82 1533.23 Q1055.11 1532.2 1055.78 1530.69 Q1056.49 1529.14 1057.46 1527.76 Q1058.42 1526.34 1059.94 1525.34 Q1061.48 1524.34 1063.25 1524.34 Q1065.67 1524.34 1067.15 1525.92 Q1068.66 1527.47 1068.66 1529.75 Q1068.66 1531.17 1067.54 1533.91 Q1063.96 1543.41 1063.96 1547.37 Q1063.96 1552.75 1068.05 1552.75 Q1069.41 1552.75 1070.66 1552.2 Q1071.95 1551.65 1072.79 1550.88 Q1073.62 1550.11 1074.27 1549.27 Q1074.94 1548.43 1075.23 1547.88 Q1075.56 1547.34 1075.59 1547.21 L1080.52 1527.37 Q1080.71 1526.6 1081.06 1526.08 Q1081.45 1525.53 1081.9 1525.34 Q1082.35 1525.15 1082.61 1525.12 Q1082.87 1525.05 1083.09 1525.05 Q1083.9 1525.05 1084.45 1525.53 Q1085.03 1526.02 1085.03 1526.85 Q1085.03 1527.02 1084.83 1527.79 Q1084.67 1528.53 1084.41 1529.62 Q1084.16 1530.69 1084.03 1531.27 Q1083 1535.32 1082.9 1535.74 L1081.06 1542.86 Q1080.97 1543.28 1080.65 1544.63 Q1080.36 1545.98 1080.19 1546.69 Q1080.03 1547.37 1079.87 1548.3 Q1079.74 1549.21 1079.74 1549.72 Q1079.74 1551.33 1080.23 1552.04 Q1080.71 1552.75 1081.77 1552.75 Q1082.77 1552.75 1083.54 1552.07 Q1084.35 1551.36 1084.96 1550.01 Q1085.57 1548.63 1085.93 1547.5 Q1086.28 1546.37 1086.73 1544.6 Q1086.89 1543.83 1087.02 1543.63 Q1087.18 1543.41 1087.63 1543.41 Q1088.44 1543.41 1088.44 1544.05 Z" fill="#000000" fill-rule="nonzero" fill-opacity="1"></path><path clip-path="url(#clip980)" d="M1116.52 1542.59 Q1116.52 1543.02 1116.34 1543.22 Q1116.18 1543.41 1115.93 1543.45 Q1115.68 1543.47 1115.03 1543.47 Q1113.92 1543.47 1113.22 1543.56 Q1112.53 1543.63 1112.1 1543.74 Q1111.67 1543.83 1111.42 1544.15 Q1111.2 1544.44 1111.08 1544.71 Q1110.99 1544.98 1110.84 1545.59 L1104.66 1570.19 Q1104.46 1570.91 1104.46 1571.27 Q1104.46 1571.65 1104.68 1571.81 Q1104.91 1571.97 1105.63 1572.04 Q1106.78 1572.15 1107.61 1572.15 Q1108.72 1572.15 1108.87 1572.31 Q1108.99 1572.46 1108.99 1572.69 Q1108.99 1573.1 1108.81 1573.32 Q1108.63 1573.52 1108.47 1573.55 Q1108.33 1573.57 1108.06 1573.57 L1101.89 1573.43 L1095.82 1573.57 Q1095.14 1573.57 1095.14 1573.05 Q1095.14 1572.71 1095.19 1572.53 Q1095.26 1572.33 1095.48 1572.26 Q1095.73 1572.17 1095.91 1572.17 Q1096.09 1572.15 1096.61 1572.15 Q1097.53 1572.15 1098.14 1572.13 Q1098.77 1572.08 1099.22 1571.97 Q1099.7 1571.83 1099.92 1571.72 Q1100.17 1571.59 1100.35 1571.29 Q1100.55 1570.98 1100.62 1570.73 Q1100.71 1570.48 1100.83 1569.96 L1107.05 1545.07 Q1107.14 1544.67 1107.14 1544.35 Q1107.14 1543.74 1106.42 1543.61 Q1105.72 1543.47 1103.96 1543.47 Q1103.42 1543.47 1103.19 1543.45 Q1102.99 1543.43 1102.81 1543.31 Q1102.65 1543.2 1102.65 1542.95 Q1102.65 1542.64 1102.74 1542.44 Q1102.83 1542.21 1102.99 1542.14 Q1103.17 1542.07 1103.28 1542.05 Q1103.4 1542.03 1103.58 1542.03 L1109.73 1542.17 L1115.82 1542.03 Q1116.52 1542.03 1116.52 1542.59 Z" fill="#000000" fill-rule="nonzero" fill-opacity="1"></path><path clip-path="url(#clip980)" d="M1158.75 1542.55 Q1158.75 1543.47 1157.96 1543.47 Q1155.41 1543.56 1154.38 1544.42 Q1153.36 1545.25 1152.98 1546.88 L1146.53 1572.6 Q1146.3 1573.41 1146.17 1573.5 Q1146.03 1573.57 1145.79 1573.57 Q1145.47 1573.57 1145.29 1573.41 Q1145.13 1573.25 1144.91 1572.69 L1133.41 1545.5 Q1133.32 1545.32 1133.21 1545.07 Q1133.09 1544.83 1133 1544.67 L1126.89 1569.04 Q1126.71 1569.74 1126.71 1570.1 Q1126.71 1570.98 1127.32 1571.54 Q1127.95 1572.08 1129.76 1572.15 Q1130.68 1572.15 1130.68 1572.64 Q1130.68 1573.57 1129.85 1573.57 Q1129.08 1573.57 1127.48 1573.5 Q1125.88 1573.43 1125.09 1573.43 Q1124.32 1573.43 1122.77 1573.5 Q1121.21 1573.57 1120.47 1573.57 Q1119.88 1573.57 1119.88 1573.05 Q1119.88 1572.64 1120.04 1572.44 Q1120.2 1572.22 1120.33 1572.19 Q1120.47 1572.15 1120.67 1572.15 Q1122.02 1572.1 1122.95 1571.83 Q1123.87 1571.56 1124.39 1571.04 Q1124.93 1570.53 1125.18 1570.01 Q1125.45 1569.47 1125.65 1568.68 L1131.83 1543.88 Q1131.83 1543.47 1128.7 1543.47 Q1128.16 1543.47 1127.93 1543.45 Q1127.73 1543.43 1127.57 1543.31 Q1127.41 1543.2 1127.41 1542.95 Q1127.41 1542.32 1127.68 1542.19 Q1127.95 1542.03 1128.74 1542.03 L1134.94 1542.03 Q1135.73 1542.03 1135.93 1542.17 Q1136.14 1542.28 1136.41 1542.91 L1146.62 1567.01 L1151.78 1546.47 Q1151.92 1546.07 1151.92 1545.5 Q1151.92 1544.6 1151.24 1544.06 Q1150.59 1543.5 1148.78 1543.47 Q1147.95 1543.47 1147.95 1542.95 Q1147.95 1542.53 1148.11 1542.32 Q1148.29 1542.1 1148.42 1542.07 Q1148.58 1542.03 1148.78 1542.03 Q1149.55 1542.03 1151.13 1542.1 Q1152.71 1542.17 1153.5 1542.17 Q1154.26 1542.17 1155.82 1542.1 Q1157.4 1542.03 1158.16 1542.03 Q1158.43 1542.03 1158.57 1542.17 Q1158.73 1542.28 1158.75 1542.41 L1158.75 1542.55 Z" fill="#000000" fill-rule="nonzero" fill-opacity="1"></path><path clip-path="url(#clip980)" d="M1188.97 1541.49 L1186.47 1551.59 Q1186.33 1552.2 1186.22 1552.36 Q1186.11 1552.51 1185.79 1552.51 Q1185.55 1552.51 1185.39 1552.4 Q1185.25 1552.29 1185.25 1552.17 L1185.23 1552.06 Q1185.23 1551.99 1185.27 1551.66 Q1185.32 1551.3 1185.37 1550.71 Q1185.41 1550.12 1185.41 1549.47 Q1185.41 1545.77 1183.61 1544.06 Q1181.83 1542.32 1178.76 1542.32 Q1176.64 1542.32 1174.75 1543.45 Q1172.85 1544.58 1171.77 1546.36 Q1170.69 1548.12 1170.69 1549.97 Q1170.69 1551.66 1171.55 1552.74 Q1172.4 1553.82 1173.51 1554.18 L1176.6 1555.02 Q1179.84 1555.85 1180.77 1556.21 Q1181.69 1556.55 1182.46 1557.31 Q1184.73 1559.43 1184.73 1562.73 Q1184.73 1565.57 1183.13 1568.32 Q1181.53 1571.04 1178.78 1572.83 Q1176.03 1574.58 1172.99 1574.58 Q1167.65 1574.58 1165.19 1571.27 L1162.93 1573.88 Q1162.51 1574.38 1162.37 1574.47 Q1162.26 1574.58 1162.1 1574.58 Q1161.9 1574.58 1161.74 1574.45 Q1161.58 1574.34 1161.58 1574.13 Q1161.58 1573.97 1162.91 1568.68 Q1164.24 1563.38 1164.35 1563.27 Q1164.53 1563.09 1164.83 1563.09 Q1165.37 1563.09 1165.37 1563.6 Q1165.32 1563.74 1165.28 1563.92 Q1165.01 1565.54 1165.01 1566.42 Q1165.01 1568.07 1165.57 1569.33 Q1166.14 1570.57 1166.97 1571.29 Q1167.83 1571.99 1168.98 1572.44 Q1170.13 1572.87 1171.09 1573.03 Q1172.06 1573.16 1173.08 1573.16 Q1175.27 1573.16 1177.2 1571.9 Q1179.17 1570.64 1180.27 1568.68 Q1181.4 1566.72 1181.4 1564.66 Q1181.4 1563.58 1181.1 1562.75 Q1180.81 1561.89 1180.41 1561.42 Q1180.02 1560.94 1179.37 1560.58 Q1178.71 1560.22 1178.26 1560.09 Q1177.84 1559.93 1177.16 1559.77 L1172.22 1558.46 Q1170.24 1557.88 1168.82 1556.19 Q1167.42 1554.5 1167.42 1551.9 Q1167.42 1549.18 1169.02 1546.65 Q1170.64 1544.1 1173.28 1542.57 Q1175.94 1541.02 1178.8 1541.02 Q1181.06 1541.02 1182.8 1541.89 Q1184.53 1542.75 1185.41 1544.35 L1187.64 1541.71 Q1188.09 1541.2 1188.18 1541.11 Q1188.3 1541.02 1188.45 1541.02 Q1188.72 1541.02 1188.84 1541.17 Q1188.97 1541.33 1188.97 1541.49 Z" fill="#000000" fill-rule="nonzero" fill-opacity="1"></path><path clip-path="url(#clip980)" d="M1258.49 1536.07 Q1258.88 1536.45 1258.88 1537 Q1258.88 1537.55 1258.49 1537.93 Q1258.1 1538.32 1257.55 1538.32 L1216.27 1538.32 Q1215.72 1538.32 1215.33 1537.93 Q1214.95 1537.55 1214.95 1537 Q1214.95 1536.45 1215.33 1536.07 Q1215.72 1535.68 1216.27 1535.68 L1257.55 1535.68 Q1258.1 1535.68 1258.49 1536.07 Z" fill="#000000" fill-rule="nonzero" fill-opacity="1"></path><path clip-path="url(#clip980)" d="M1317.98 1544.05 Q1317.14 1548.21 1316.01 1550.59 Q1314.18 1554.23 1311.12 1554.23 Q1308.99 1554.23 1307.38 1553.04 Q1305.8 1551.81 1305.25 1549.78 Q1304.64 1550.59 1304.1 1551.14 Q1303.58 1551.68 1302.58 1552.52 Q1301.58 1553.33 1300.23 1553.78 Q1298.91 1554.23 1297.4 1554.23 Q1296.24 1554.23 1295.17 1554 Q1294.11 1553.81 1292.98 1553.26 Q1291.89 1552.68 1291.08 1551.81 Q1290.31 1550.94 1289.8 1549.53 Q1289.28 1548.11 1289.28 1546.31 Q1289.28 1544.05 1290.15 1540.99 Q1291.05 1537.93 1293.11 1532.46 Q1294.24 1529.56 1294.24 1527.95 Q1294.24 1527.21 1294.08 1526.73 Q1293.92 1526.24 1293.6 1526.08 Q1293.31 1525.89 1293.11 1525.86 Q1292.92 1525.79 1292.6 1525.79 Q1290.6 1525.79 1288.86 1527.82 Q1287.12 1529.85 1285.93 1533.97 Q1285.67 1534.78 1285.51 1534.97 Q1285.35 1535.16 1284.87 1535.16 Q1284.06 1535.13 1284.06 1534.49 Q1284.06 1534.23 1284.35 1533.23 Q1284.64 1532.2 1285.32 1530.69 Q1286.03 1529.14 1286.99 1527.76 Q1287.96 1526.34 1289.47 1525.34 Q1291.02 1524.34 1292.79 1524.34 Q1295.21 1524.34 1296.69 1525.92 Q1298.2 1527.47 1298.2 1529.75 Q1298.2 1531.17 1297.07 1533.91 Q1293.5 1543.41 1293.5 1547.37 Q1293.5 1552.75 1297.59 1552.75 Q1298.94 1552.75 1300.2 1552.2 Q1301.49 1551.65 1302.32 1550.88 Q1303.16 1550.11 1303.81 1549.27 Q1304.48 1548.43 1304.77 1547.88 Q1305.09 1547.34 1305.13 1547.21 L1310.05 1527.37 Q1310.25 1526.6 1310.6 1526.08 Q1310.99 1525.53 1311.44 1525.34 Q1311.89 1525.15 1312.15 1525.12 Q1312.4 1525.05 1312.63 1525.05 Q1313.44 1525.05 1313.98 1525.53 Q1314.56 1526.02 1314.56 1526.85 Q1314.56 1527.02 1314.37 1527.79 Q1314.21 1528.53 1313.95 1529.62 Q1313.69 1530.69 1313.56 1531.27 Q1312.53 1535.32 1312.44 1535.74 L1310.6 1542.86 Q1310.5 1543.28 1310.18 1544.63 Q1309.89 1545.98 1309.73 1546.69 Q1309.57 1547.37 1309.41 1548.3 Q1309.28 1549.21 1309.28 1549.72 Q1309.28 1551.33 1309.76 1552.04 Q1310.25 1552.75 1311.31 1552.75 Q1312.31 1552.75 1313.08 1552.07 Q1313.89 1551.36 1314.5 1550.01 Q1315.11 1548.63 1315.46 1547.5 Q1315.82 1546.37 1316.27 1544.6 Q1316.43 1543.83 1316.56 1543.63 Q1316.72 1543.41 1317.17 1543.41 Q1317.98 1543.41 1317.98 1544.05 Z" fill="#000000" fill-rule="nonzero" fill-opacity="1"></path><path clip-path="url(#clip980)" d="M1356.6 1553.44 Q1356.6 1556.66 1355.45 1559.86 Q1354.33 1563.04 1352.34 1565.66 Q1350.36 1568.27 1347.83 1570.3 Q1345.31 1572.33 1342.36 1573.46 Q1339.4 1574.58 1336.52 1574.58 Q1331.4 1574.58 1328.04 1571.22 Q1324.68 1567.87 1324.68 1562.25 Q1324.68 1558.33 1326.44 1554.43 Q1328.2 1550.51 1330.99 1547.6 Q1333.79 1544.67 1337.46 1542.84 Q1341.16 1541.02 1344.81 1541.02 Q1350 1541.02 1353.29 1544.46 Q1356.6 1547.89 1356.6 1553.44 M1352.48 1551.63 Q1352.48 1549.15 1351.78 1547.28 Q1351.08 1545.39 1349.91 1544.31 Q1348.76 1543.22 1347.38 1542.71 Q1346.03 1542.17 1344.54 1542.17 Q1341.66 1542.17 1338.57 1544.04 Q1335.48 1545.91 1333.18 1549.38 Q1331.94 1551.27 1331.04 1553.55 Q1330.14 1555.8 1329.73 1557.81 Q1329.33 1559.79 1329.15 1561.19 Q1328.99 1562.59 1328.99 1563.56 Q1328.99 1568.07 1331.15 1570.73 Q1333.32 1573.39 1336.79 1573.39 Q1339.52 1573.39 1342.18 1571.79 Q1344.84 1570.16 1346.66 1567.84 Q1348.29 1565.84 1349.48 1563.42 Q1350.7 1561.01 1351.31 1558.8 Q1351.91 1556.59 1352.19 1554.81 Q1352.48 1553.03 1352.48 1551.63 Z" fill="#000000" fill-rule="nonzero" fill-opacity="1"></path><path clip-path="url(#clip980)" d="M1395.4 1553.71 Q1395.4 1557.43 1393.79 1561.08 Q1392.22 1564.71 1389.65 1567.46 Q1387.1 1570.19 1383.65 1571.88 Q1380.2 1573.57 1376.68 1573.57 L1361.4 1573.57 Q1360.86 1573.57 1360.63 1573.55 Q1360.43 1573.52 1360.27 1573.41 Q1360.11 1573.28 1360.11 1573.01 Q1360.11 1572.58 1360.29 1572.4 Q1360.47 1572.19 1360.68 1572.17 Q1360.88 1572.15 1361.4 1572.15 Q1362.53 1572.15 1363.2 1572.08 Q1363.88 1572.01 1364.31 1571.92 Q1364.76 1571.81 1364.98 1571.49 Q1365.23 1571.18 1365.34 1570.91 Q1365.46 1570.62 1365.61 1569.96 L1371.79 1545.16 Q1371.97 1544.42 1371.97 1544.31 Q1371.97 1543.92 1371.75 1543.79 Q1371.54 1543.63 1370.96 1543.56 Q1369.83 1543.47 1368.97 1543.47 Q1368.41 1543.47 1368.18 1543.45 Q1367.98 1543.43 1367.8 1543.31 Q1367.64 1543.18 1367.64 1542.91 Q1367.64 1542.48 1367.82 1542.3 Q1368.03 1542.1 1368.25 1542.07 Q1368.48 1542.03 1369.02 1542.03 L1384.53 1542.03 Q1387.89 1542.03 1390.39 1543.61 Q1392.89 1545.16 1394.13 1547.8 Q1395.4 1550.42 1395.4 1553.71 M1391.36 1552.02 Q1391.36 1547.71 1389.02 1545.59 Q1386.69 1543.47 1383.02 1543.47 L1378.08 1543.47 Q1376.62 1543.47 1376.26 1543.74 Q1375.89 1543.99 1375.58 1545.23 L1369.24 1570.57 Q1369.02 1571.4 1369.02 1571.63 Q1369.02 1571.88 1369.13 1571.97 Q1369.27 1572.04 1369.63 1572.08 Q1370.03 1572.15 1370.64 1572.15 L1375.85 1572.15 Q1377.86 1572.15 1379.68 1571.61 Q1381.53 1571.04 1382.86 1570.16 Q1384.19 1569.26 1385.05 1568.5 Q1385.9 1567.71 1386.51 1566.92 Q1387.89 1565.14 1388.9 1562.82 Q1389.94 1560.49 1390.41 1558.37 Q1390.91 1556.23 1391.13 1554.65 Q1391.36 1553.05 1391.36 1552.02 Z" fill="#000000" fill-rule="nonzero" fill-opacity="1"></path><path clip-path="url(#clip980)" d="M1431.62 1543.43 L1430.7 1551.41 Q1430.63 1552.13 1430.52 1552.36 Q1430.41 1552.56 1430.05 1552.56 Q1429.78 1552.56 1429.62 1552.4 Q1429.48 1552.22 1429.48 1552.02 Q1429.48 1551.9 1429.51 1551.61 Q1429.53 1551.32 1429.53 1551.18 Q1429.73 1549.79 1429.73 1548.73 Q1429.73 1546.76 1429.14 1545.7 Q1428.56 1544.62 1427.05 1544.13 Q1425.54 1543.61 1422.7 1543.61 L1416.2 1543.61 Q1414.72 1543.61 1414.36 1543.88 Q1414.02 1544.15 1413.7 1545.41 L1410.93 1556.53 L1415.28 1556.53 Q1416.9 1556.53 1417.87 1556.32 Q1418.86 1556.12 1419.52 1555.56 Q1420.19 1554.97 1420.56 1554.18 Q1420.94 1553.39 1421.32 1551.97 Q1421.43 1551.5 1421.55 1551.32 Q1421.68 1551.14 1421.98 1551.14 Q1422.2 1551.14 1422.36 1551.3 Q1422.52 1551.43 1422.52 1551.63 L1419.88 1562.43 Q1419.74 1562.97 1419.61 1563.18 Q1419.47 1563.36 1419.2 1563.36 Q1418.91 1563.36 1418.75 1563.2 Q1418.59 1563.04 1418.59 1562.86 Q1418.59 1562.68 1418.73 1562.34 Q1419.07 1560.88 1419.07 1560.09 Q1419.07 1559.64 1419.02 1559.41 Q1419 1559.19 1418.8 1558.87 Q1418.62 1558.53 1418.21 1558.37 Q1417.8 1558.22 1417.04 1558.1 Q1416.27 1557.97 1415.12 1557.97 L1410.57 1557.97 L1407.41 1570.57 Q1407.19 1571.4 1407.19 1571.63 Q1407.19 1571.88 1407.3 1571.97 Q1407.43 1572.04 1407.8 1572.08 Q1408.2 1572.15 1408.81 1572.15 L1415.55 1572.15 Q1417.04 1572.15 1418.23 1572.01 Q1419.43 1571.88 1420.42 1571.54 Q1421.43 1571.2 1422.2 1570.82 Q1422.97 1570.44 1423.69 1569.74 Q1424.41 1569.02 1424.91 1568.38 Q1425.42 1567.73 1426.03 1566.63 Q1426.64 1565.52 1427.07 1564.62 Q1427.5 1563.69 1428.15 1562.21 Q1428.33 1561.67 1428.76 1561.67 Q1429.01 1561.67 1429.14 1561.8 Q1429.28 1561.91 1429.3 1562.03 L1429.3 1562.16 Q1429.17 1562.59 1429.08 1562.82 L1424.84 1572.78 Q1424.59 1573.34 1424.39 1573.46 Q1424.18 1573.57 1423.4 1573.57 L1399.43 1573.57 Q1398.89 1573.57 1398.66 1573.55 Q1398.46 1573.52 1398.3 1573.41 Q1398.15 1573.28 1398.15 1573.01 Q1398.15 1572.58 1398.33 1572.4 Q1398.51 1572.19 1398.71 1572.17 Q1398.91 1572.15 1399.43 1572.15 Q1400.56 1572.15 1401.23 1572.08 Q1401.91 1572.01 1402.34 1571.92 Q1402.79 1571.81 1403.02 1571.49 Q1403.26 1571.18 1403.38 1570.91 Q1403.49 1570.62 1403.65 1569.96 L1409.73 1545.55 Q1409.96 1544.71 1409.96 1544.44 Q1409.96 1544.15 1409.76 1543.97 Q1409.58 1543.79 1409.08 1543.72 Q1408.58 1543.63 1408.18 1543.63 Q1407.8 1543.61 1406.96 1543.61 Q1406.42 1543.61 1406.19 1543.59 Q1405.99 1543.56 1405.83 1543.45 Q1405.68 1543.34 1405.68 1543.09 Q1405.68 1542.46 1405.95 1542.32 Q1406.24 1542.17 1407.05 1542.17 L1430.36 1542.17 Q1431.29 1542.17 1431.49 1542.37 Q1431.71 1542.55 1431.62 1543.43 Z" fill="#000000" fill-rule="nonzero" fill-opacity="1"></path><path clip-path="url(#clip980)" d="M1438.93 1567.95 L1438.93 1506.53 Q1438.93 1504.08 1440.25 1504.08 Q1441.57 1504.08 1441.57 1506.05 L1441.57 1567.47 Q1441.57 1569.91 1440.25 1569.91 Q1438.93 1569.91 1438.93 1567.95 Z" fill="#000000" fill-rule="nonzero" fill-opacity="1"></path><path clip-path="url(#clip980)" d="M1480.97 1536.55 Q1481.03 1536.68 1481.03 1537 Q1481.03 1537.32 1480.97 1537.45 L1468.69 1569.11 Q1468.37 1569.98 1467.47 1569.98 Q1466.92 1569.98 1466.54 1569.59 Q1466.15 1569.2 1466.15 1568.66 Q1466.15 1568.34 1466.21 1568.21 L1478.32 1537 L1466.21 1505.79 Q1466.15 1505.66 1466.15 1505.34 Q1466.15 1504.79 1466.54 1504.41 Q1466.92 1504.02 1467.47 1504.02 Q1468.37 1504.02 1468.69 1504.89 L1480.97 1536.55 Z" fill="#000000" fill-rule="nonzero" fill-opacity="1"></path><polyline clip-path="url(#clip982)" style="stroke:#000000; stroke-linecap:round; stroke-linejoin:round; stroke-width:2; stroke-opacity:0.1; fill:none" points="140.696,1423.18 2352.76,1423.18 "></polyline>
<polyline clip-path="url(#clip982)" style="stroke:#000000; stroke-linecap:round; stroke-linejoin:round; stroke-width:2; stroke-opacity:0.1; fill:none" points="140.696,1110.47 2352.76,1110.47 "></polyline>
<polyline clip-path="url(#clip982)" style="stroke:#000000; stroke-linecap:round; stroke-linejoin:round; stroke-width:2; stroke-opacity:0.1; fill:none" points="140.696,797.755 2352.76,797.755 "></polyline>
<polyline clip-path="url(#clip982)" style="stroke:#000000; stroke-linecap:round; stroke-linejoin:round; stroke-width:2; stroke-opacity:0.1; fill:none" points="140.696,485.042 2352.76,485.042 "></polyline>
<polyline clip-path="url(#clip982)" style="stroke:#000000; stroke-linecap:round; stroke-linejoin:round; stroke-width:2; stroke-opacity:0.1; fill:none" points="140.696,172.329 2352.76,172.329 "></polyline>
<polyline clip-path="url(#clip980)" style="stroke:#000000; stroke-linecap:round; stroke-linejoin:round; stroke-width:4; stroke-opacity:1; fill:none" points="140.696,1423.18 140.696,47.2441 "></polyline>
<polyline clip-path="url(#clip980)" style="stroke:#000000; stroke-linecap:round; stroke-linejoin:round; stroke-width:4; stroke-opacity:1; fill:none" points="140.696,1423.18 159.593,1423.18 "></polyline>
<polyline clip-path="url(#clip980)" style="stroke:#000000; stroke-linecap:round; stroke-linejoin:round; stroke-width:4; stroke-opacity:1; fill:none" points="140.696,1110.47 159.593,1110.47 "></polyline>
<polyline clip-path="url(#clip980)" style="stroke:#000000; stroke-linecap:round; stroke-linejoin:round; stroke-width:4; stroke-opacity:1; fill:none" points="140.696,797.755 159.593,797.755 "></polyline>
<polyline clip-path="url(#clip980)" style="stroke:#000000; stroke-linecap:round; stroke-linejoin:round; stroke-width:4; stroke-opacity:1; fill:none" points="140.696,485.042 159.593,485.042 "></polyline>
<polyline clip-path="url(#clip980)" style="stroke:#000000; stroke-linecap:round; stroke-linejoin:round; stroke-width:4; stroke-opacity:1; fill:none" points="140.696,172.329 159.593,172.329 "></polyline>
<path clip-path="url(#clip980)" d="M92.7512 1408.98 Q89.1401 1408.98 87.3114 1412.54 Q85.5058 1416.08 85.5058 1423.21 Q85.5058 1430.32 87.3114 1433.89 Q89.1401 1437.43 92.7512 1437.43 Q96.3854 1437.43 98.1909 1433.89 Q100.02 1430.32 100.02 1423.21 Q100.02 1416.08 98.1909 1412.54 Q96.3854 1408.98 92.7512 1408.98 M92.7512 1405.27 Q98.5613 1405.27 101.617 1409.88 Q104.696 1414.46 104.696 1423.21 Q104.696 1431.94 101.617 1436.55 Q98.5613 1441.13 92.7512 1441.13 Q86.941 1441.13 83.8623 1436.55 Q80.8068 1431.94 80.8068 1423.21 Q80.8068 1414.46 83.8623 1409.88 Q86.941 1405.27 92.7512 1405.27 Z" fill="#000000" fill-rule="nonzero" fill-opacity="1"></path><path clip-path="url(#clip980)" d="M83.7929 1093.19 L102.149 1093.19 L102.149 1097.12 L88.0753 1097.12 L88.0753 1105.59 Q89.0938 1105.25 90.1123 1105.09 Q91.1308 1104.9 92.1493 1104.9 Q97.9363 1104.9 101.316 1108.07 Q104.696 1111.24 104.696 1116.66 Q104.696 1122.24 101.223 1125.34 Q97.7511 1128.42 91.4317 1128.42 Q89.2558 1128.42 86.9873 1128.05 Q84.7419 1127.68 82.3346 1126.94 L82.3346 1122.24 Q84.4179 1123.37 86.6401 1123.93 Q88.8623 1124.48 91.3391 1124.48 Q95.3437 1124.48 97.6817 1122.38 Q100.02 1120.27 100.02 1116.66 Q100.02 1113.05 97.6817 1110.94 Q95.3437 1108.84 91.3391 1108.84 Q89.4641 1108.84 87.5892 1109.25 Q85.7373 1109.67 83.7929 1110.55 L83.7929 1093.19 Z" fill="#000000" fill-rule="nonzero" fill-opacity="1"></path><path clip-path="url(#clip980)" d="M53.3995 811.099 L61.0384 811.099 L61.0384 784.734 L52.7282 786.4 L52.7282 782.141 L60.9921 780.475 L65.668 780.475 L65.668 811.099 L73.3068 811.099 L73.3068 815.035 L53.3995 815.035 L53.3995 811.099 Z" fill="#000000" fill-rule="nonzero" fill-opacity="1"></path><path clip-path="url(#clip980)" d="M92.7512 783.553 Q89.1401 783.553 87.3114 787.118 Q85.5058 790.66 85.5058 797.789 Q85.5058 804.896 87.3114 808.46 Q89.1401 812.002 92.7512 812.002 Q96.3854 812.002 98.1909 808.46 Q100.02 804.896 100.02 797.789 Q100.02 790.66 98.1909 787.118 Q96.3854 783.553 92.7512 783.553 M92.7512 779.85 Q98.5613 779.85 101.617 784.456 Q104.696 789.039 104.696 797.789 Q104.696 806.516 101.617 811.122 Q98.5613 815.706 92.7512 815.706 Q86.941 815.706 83.8623 811.122 Q80.8068 806.516 80.8068 797.789 Q80.8068 789.039 83.8623 784.456 Q86.941 779.85 92.7512 779.85 Z" fill="#000000" fill-rule="nonzero" fill-opacity="1"></path><path clip-path="url(#clip980)" d="M54.3949 498.387 L62.0337 498.387 L62.0337 472.021 L53.7236 473.688 L53.7236 469.428 L61.9874 467.762 L66.6633 467.762 L66.6633 498.387 L74.3022 498.387 L74.3022 502.322 L54.3949 502.322 L54.3949 498.387 Z" fill="#000000" fill-rule="nonzero" fill-opacity="1"></path><path clip-path="url(#clip980)" d="M83.7929 467.762 L102.149 467.762 L102.149 471.697 L88.0753 471.697 L88.0753 480.169 Q89.0938 479.822 90.1123 479.66 Q91.1308 479.475 92.1493 479.475 Q97.9363 479.475 101.316 482.646 Q104.696 485.817 104.696 491.234 Q104.696 496.813 101.223 499.914 Q97.7511 502.993 91.4317 502.993 Q89.2558 502.993 86.9873 502.623 Q84.7419 502.252 82.3346 501.512 L82.3346 496.813 Q84.4179 497.947 86.6401 498.502 Q88.8623 499.058 91.3391 499.058 Q95.3437 499.058 97.6817 496.951 Q100.02 494.845 100.02 491.234 Q100.02 487.623 97.6817 485.516 Q95.3437 483.41 91.3391 483.41 Q89.4641 483.41 87.5892 483.827 Q85.7373 484.243 83.7929 485.123 L83.7929 467.762 Z" fill="#000000" fill-rule="nonzero" fill-opacity="1"></path><path clip-path="url(#clip980)" d="M56.6171 185.674 L72.9365 185.674 L72.9365 189.609 L50.9921 189.609 L50.9921 185.674 Q53.6541 182.919 58.2375 178.29 Q62.8439 173.637 64.0245 172.294 Q66.2698 169.771 67.1494 168.035 Q68.0522 166.276 68.0522 164.586 Q68.0522 161.832 66.1078 160.095 Q64.1865 158.359 61.0847 158.359 Q58.8856 158.359 56.4319 159.123 Q54.0014 159.887 51.2236 161.438 L51.2236 156.716 Q54.0477 155.582 56.5014 155.003 Q58.955 154.424 60.9921 154.424 Q66.3624 154.424 69.5568 157.109 Q72.7513 159.795 72.7513 164.285 Q72.7513 166.415 71.9411 168.336 Q71.1541 170.234 69.0476 172.827 Q68.4689 173.498 65.367 176.716 Q62.2652 179.91 56.6171 185.674 Z" fill="#000000" fill-rule="nonzero" fill-opacity="1"></path><path clip-path="url(#clip980)" d="M92.7512 158.128 Q89.1401 158.128 87.3114 161.693 Q85.5058 165.234 85.5058 172.364 Q85.5058 179.47 87.3114 183.035 Q89.1401 186.577 92.7512 186.577 Q96.3854 186.577 98.1909 183.035 Q100.02 179.47 100.02 172.364 Q100.02 165.234 98.1909 161.693 Q96.3854 158.128 92.7512 158.128 M92.7512 154.424 Q98.5613 154.424 101.617 159.031 Q104.696 163.614 104.696 172.364 Q104.696 181.091 101.617 185.697 Q98.5613 190.28 92.7512 190.28 Q86.941 190.28 83.8623 185.697 Q80.8068 181.091 80.8068 172.364 Q80.8068 163.614 83.8623 159.031 Q86.941 154.424 92.7512 154.424 Z" fill="#000000" fill-rule="nonzero" fill-opacity="1"></path><path clip-path="url(#clip982)" d="M262.363 1298.09 L262.363 1423.18 L413.803 1423.18 L413.803 1298.09 L262.363 1298.09 L262.363 1298.09  Z" fill="#009af9" fill-rule="evenodd" fill-opacity="1"></path>
<polyline clip-path="url(#clip982)" style="stroke:#000000; stroke-linecap:round; stroke-linejoin:round; stroke-width:4; stroke-opacity:1; fill:none" points="262.363,1298.09 262.363,1423.18 413.803,1423.18 413.803,1298.09 262.363,1298.09 "></polyline>
<path clip-path="url(#clip982)" d="M413.803 485.042 L413.803 1423.18 L565.244 1423.18 L565.244 485.042 L413.803 485.042 L413.803 485.042  Z" fill="#009af9" fill-rule="evenodd" fill-opacity="1"></path>
<polyline clip-path="url(#clip982)" style="stroke:#000000; stroke-linecap:round; stroke-linejoin:round; stroke-width:4; stroke-opacity:1; fill:none" points="413.803,485.042 413.803,1423.18 565.244,1423.18 565.244,485.042 413.803,485.042 "></polyline>
<path clip-path="url(#clip982)" d="M565.244 47.2441 L565.244 1423.18 L716.684 1423.18 L716.684 47.2441 L565.244 47.2441 L565.244 47.2441  Z" fill="#009af9" fill-rule="evenodd" fill-opacity="1"></path>
<polyline clip-path="url(#clip982)" style="stroke:#000000; stroke-linecap:round; stroke-linejoin:round; stroke-width:4; stroke-opacity:1; fill:none" points="565.244,47.2441 565.244,1423.18 716.684,1423.18 716.684,47.2441 565.244,47.2441 "></polyline>
<path clip-path="url(#clip982)" d="M716.684 172.329 L716.684 1423.18 L868.125 1423.18 L868.125 172.329 L716.684 172.329 L716.684 172.329  Z" fill="#009af9" fill-rule="evenodd" fill-opacity="1"></path>
<polyline clip-path="url(#clip982)" style="stroke:#000000; stroke-linecap:round; stroke-linejoin:round; stroke-width:4; stroke-opacity:1; fill:none" points="716.684,172.329 716.684,1423.18 868.125,1423.18 868.125,172.329 716.684,172.329 "></polyline>
<path clip-path="url(#clip982)" d="M868.125 172.329 L868.125 1423.18 L1019.57 1423.18 L1019.57 172.329 L868.125 172.329 L868.125 172.329  Z" fill="#009af9" fill-rule="evenodd" fill-opacity="1"></path>
<polyline clip-path="url(#clip982)" style="stroke:#000000; stroke-linecap:round; stroke-linejoin:round; stroke-width:4; stroke-opacity:1; fill:none" points="868.125,172.329 868.125,1423.18 1019.57,1423.18 1019.57,172.329 868.125,172.329 "></polyline>
<path clip-path="url(#clip982)" d="M1019.57 1047.92 L1019.57 1423.18 L1171.01 1423.18 L1171.01 1047.92 L1019.57 1047.92 L1019.57 1047.92  Z" fill="#009af9" fill-rule="evenodd" fill-opacity="1"></path>
<polyline clip-path="url(#clip982)" style="stroke:#000000; stroke-linecap:round; stroke-linejoin:round; stroke-width:4; stroke-opacity:1; fill:none" points="1019.57,1047.92 1019.57,1423.18 1171.01,1423.18 1171.01,1047.92 1019.57,1047.92 "></polyline>
<path clip-path="url(#clip982)" d="M1171.01 922.84 L1171.01 1423.18 L1322.45 1423.18 L1322.45 922.84 L1171.01 922.84 L1171.01 922.84  Z" fill="#009af9" fill-rule="evenodd" fill-opacity="1"></path>
<polyline clip-path="url(#clip982)" style="stroke:#000000; stroke-linecap:round; stroke-linejoin:round; stroke-width:4; stroke-opacity:1; fill:none" points="1171.01,922.84 1171.01,1423.18 1322.45,1423.18 1322.45,922.84 1171.01,922.84 "></polyline>
<path clip-path="url(#clip982)" d="M1322.45 1173.01 L1322.45 1423.18 L1473.89 1423.18 L1473.89 1173.01 L1322.45 1173.01 L1322.45 1173.01  Z" fill="#009af9" fill-rule="evenodd" fill-opacity="1"></path>
<polyline clip-path="url(#clip982)" style="stroke:#000000; stroke-linecap:round; stroke-linejoin:round; stroke-width:4; stroke-opacity:1; fill:none" points="1322.45,1173.01 1322.45,1423.18 1473.89,1423.18 1473.89,1173.01 1322.45,1173.01 "></polyline>
<path clip-path="url(#clip982)" d="M1473.89 1423.18 L1473.89 1423.18 L1625.33 1423.18 L1625.33 1423.18 L1473.89 1423.18 L1473.89 1423.18  Z" fill="#009af9" fill-rule="evenodd" fill-opacity="1"></path>
<polyline clip-path="url(#clip982)" style="stroke:#000000; stroke-linecap:round; stroke-linejoin:round; stroke-width:4; stroke-opacity:1; fill:none" points="1473.89,1423.18 1473.89,1423.18 1625.33,1423.18 1473.89,1423.18 "></polyline>
<path clip-path="url(#clip982)" d="M1625.33 1423.18 L1625.33 1423.18 L1776.77 1423.18 L1776.77 1423.18 L1625.33 1423.18 L1625.33 1423.18  Z" fill="#009af9" fill-rule="evenodd" fill-opacity="1"></path>
<polyline clip-path="url(#clip982)" style="stroke:#000000; stroke-linecap:round; stroke-linejoin:round; stroke-width:4; stroke-opacity:1; fill:none" points="1625.33,1423.18 1625.33,1423.18 1776.77,1423.18 1625.33,1423.18 "></polyline>
<path clip-path="url(#clip982)" d="M1776.77 1298.09 L1776.77 1423.18 L1928.21 1423.18 L1928.21 1298.09 L1776.77 1298.09 L1776.77 1298.09  Z" fill="#009af9" fill-rule="evenodd" fill-opacity="1"></path>
<polyline clip-path="url(#clip982)" style="stroke:#000000; stroke-linecap:round; stroke-linejoin:round; stroke-width:4; stroke-opacity:1; fill:none" points="1776.77,1298.09 1776.77,1423.18 1928.21,1423.18 1928.21,1298.09 1776.77,1298.09 "></polyline>
<path clip-path="url(#clip982)" d="M1928.21 1423.18 L1928.21 1423.18 L2079.65 1423.18 L2079.65 1423.18 L1928.21 1423.18 L1928.21 1423.18  Z" fill="#009af9" fill-rule="evenodd" fill-opacity="1"></path>
<polyline clip-path="url(#clip982)" style="stroke:#000000; stroke-linecap:round; stroke-linejoin:round; stroke-width:4; stroke-opacity:1; fill:none" points="1928.21,1423.18 1928.21,1423.18 2079.65,1423.18 1928.21,1423.18 "></polyline>
<path clip-path="url(#clip982)" d="M2079.65 1360.64 L2079.65 1423.18 L2231.09 1423.18 L2231.09 1360.64 L2079.65 1360.64 L2079.65 1360.64  Z" fill="#009af9" fill-rule="evenodd" fill-opacity="1"></path>
<polyline clip-path="url(#clip982)" style="stroke:#000000; stroke-linecap:round; stroke-linejoin:round; stroke-width:4; stroke-opacity:1; fill:none" points="2079.65,1360.64 2079.65,1423.18 2231.09,1423.18 2231.09,1360.64 2079.65,1360.64 "></polyline>
<circle clip-path="url(#clip982)" style="fill:#009af9; stroke:none; fill-opacity:0" cx="338.083" cy="1298.09" r="2"></circle>
<circle clip-path="url(#clip982)" style="fill:#009af9; stroke:none; fill-opacity:0" cx="489.523" cy="485.042" r="2"></circle>
<circle clip-path="url(#clip982)" style="fill:#009af9; stroke:none; fill-opacity:0" cx="640.964" cy="47.2441" r="2"></circle>
<circle clip-path="url(#clip982)" style="fill:#009af9; stroke:none; fill-opacity:0" cx="792.404" cy="172.329" r="2"></circle>
<circle clip-path="url(#clip982)" style="fill:#009af9; stroke:none; fill-opacity:0" cx="943.845" cy="172.329" r="2"></circle>
<circle clip-path="url(#clip982)" style="fill:#009af9; stroke:none; fill-opacity:0" cx="1095.29" cy="1047.92" r="2"></circle>
<circle clip-path="url(#clip982)" style="fill:#009af9; stroke:none; fill-opacity:0" cx="1246.73" cy="922.84" r="2"></circle>
<circle clip-path="url(#clip982)" style="fill:#009af9; stroke:none; fill-opacity:0" cx="1398.17" cy="1173.01" r="2"></circle>
<circle clip-path="url(#clip982)" style="fill:#009af9; stroke:none; fill-opacity:0" cx="1549.61" cy="1423.18" r="2"></circle>
<circle clip-path="url(#clip982)" style="fill:#009af9; stroke:none; fill-opacity:0" cx="1701.05" cy="1423.18" r="2"></circle>
<circle clip-path="url(#clip982)" style="fill:#009af9; stroke:none; fill-opacity:0" cx="1852.49" cy="1298.09" r="2"></circle>
<circle clip-path="url(#clip982)" style="fill:#009af9; stroke:none; fill-opacity:0" cx="2003.93" cy="1423.18" r="2"></circle>
<circle clip-path="url(#clip982)" style="fill:#009af9; stroke:none; fill-opacity:0" cx="2155.37" cy="1360.64" r="2"></circle>
<path clip-path="url(#clip980)" d="M1584.58 196.789 L2279.02 196.789 L2279.02 93.1086 L1584.58 93.1086  Z" fill="#ffffff" fill-rule="evenodd" fill-opacity="1"></path>
<polyline clip-path="url(#clip980)" style="stroke:#000000; stroke-linecap:round; stroke-linejoin:round; stroke-width:4; stroke-opacity:1; fill:none" points="1584.58,196.789 2279.02,196.789 2279.02,93.1086 1584.58,93.1086 1584.58,196.789 "></polyline>
<path clip-path="url(#clip980)" d="M1609.15 165.685 L1756.63 165.685 L1756.63 124.213 L1609.15 124.213 L1609.15 165.685  Z" fill="#009af9" fill-rule="evenodd" fill-opacity="1"></path>
<polyline clip-path="url(#clip980)" style="stroke:#000000; stroke-linecap:round; stroke-linejoin:round; stroke-width:4; stroke-opacity:1; fill:none" points="1609.15,165.685 1756.63,165.685 1756.63,124.213 1609.15,124.213 1609.15,165.685 "></polyline>
<path clip-path="url(#clip980)" d="M1781.2 127.669 L1788.17 127.669 L1796.99 151.187 L1805.86 127.669 L1812.82 127.669 L1812.82 162.229 L1808.26 162.229 L1808.26 131.882 L1799.35 155.585 L1794.65 155.585 L1785.74 131.882 L1785.74 162.229 L1781.2 162.229 L1781.2 127.669 Z" fill="#000000" fill-rule="nonzero" fill-opacity="1"></path><path clip-path="url(#clip980)" d="M1844.1 148.201 L1844.1 150.284 L1824.51 150.284 Q1824.79 154.682 1827.15 156.997 Q1829.54 159.289 1833.77 159.289 Q1836.23 159.289 1838.52 158.687 Q1840.83 158.085 1843.1 156.881 L1843.1 160.909 Q1840.81 161.881 1838.4 162.391 Q1836 162.9 1833.52 162.9 Q1827.31 162.9 1823.68 159.289 Q1820.07 155.678 1820.07 149.52 Q1820.07 143.155 1823.5 139.428 Q1826.94 135.678 1832.78 135.678 Q1838.01 135.678 1841.04 139.057 Q1844.1 142.414 1844.1 148.201 M1839.84 146.951 Q1839.79 143.456 1837.87 141.372 Q1835.97 139.289 1832.82 139.289 Q1829.26 139.289 1827.11 141.303 Q1824.98 143.317 1824.65 146.974 L1839.84 146.951 Z" fill="#000000" fill-rule="nonzero" fill-opacity="1"></path><path clip-path="url(#clip980)" d="M1862.87 149.196 Q1857.71 149.196 1855.72 150.377 Q1853.73 151.557 1853.73 154.405 Q1853.73 156.673 1855.21 158.016 Q1856.71 159.335 1859.28 159.335 Q1862.82 159.335 1864.95 156.835 Q1867.11 154.312 1867.11 150.145 L1867.11 149.196 L1862.87 149.196 M1871.37 147.437 L1871.37 162.229 L1867.11 162.229 L1867.11 158.293 Q1865.65 160.655 1863.47 161.789 Q1861.3 162.9 1858.15 162.9 Q1854.17 162.9 1851.81 160.678 Q1849.47 158.432 1849.47 154.682 Q1849.47 150.307 1852.38 148.085 Q1855.32 145.863 1861.13 145.863 L1867.11 145.863 L1867.11 145.446 Q1867.11 142.507 1865.16 140.909 Q1863.24 139.289 1859.75 139.289 Q1857.52 139.289 1855.42 139.821 Q1853.31 140.354 1851.37 141.419 L1851.37 137.483 Q1853.7 136.581 1855.9 136.141 Q1858.1 135.678 1860.18 135.678 Q1865.81 135.678 1868.59 138.594 Q1871.37 141.511 1871.37 147.437 Z" fill="#000000" fill-rule="nonzero" fill-opacity="1"></path><path clip-path="url(#clip980)" d="M1901.69 146.581 L1901.69 162.229 L1897.43 162.229 L1897.43 146.719 Q1897.43 143.039 1895.99 141.21 Q1894.56 139.382 1891.69 139.382 Q1888.24 139.382 1886.25 141.581 Q1884.26 143.78 1884.26 147.576 L1884.26 162.229 L1879.98 162.229 L1879.98 136.303 L1884.26 136.303 L1884.26 140.331 Q1885.79 137.993 1887.85 136.835 Q1889.93 135.678 1892.64 135.678 Q1897.11 135.678 1899.4 138.456 Q1901.69 141.21 1901.69 146.581 Z" fill="#000000" fill-rule="nonzero" fill-opacity="1"></path><path clip-path="url(#clip980)" d="M1937.04 149.196 Q1931.87 149.196 1929.88 150.377 Q1927.89 151.557 1927.89 154.405 Q1927.89 156.673 1929.37 158.016 Q1930.88 159.335 1933.45 159.335 Q1936.99 159.335 1939.12 156.835 Q1941.27 154.312 1941.27 150.145 L1941.27 149.196 L1937.04 149.196 M1945.53 147.437 L1945.53 162.229 L1941.27 162.229 L1941.27 158.293 Q1939.81 160.655 1937.64 161.789 Q1935.46 162.9 1932.31 162.9 Q1928.33 162.9 1925.97 160.678 Q1923.63 158.432 1923.63 154.682 Q1923.63 150.307 1926.55 148.085 Q1929.49 145.863 1935.3 145.863 L1941.27 145.863 L1941.27 145.446 Q1941.27 142.507 1939.33 140.909 Q1937.41 139.289 1933.91 139.289 Q1931.69 139.289 1929.58 139.821 Q1927.48 140.354 1925.53 141.419 L1925.53 137.483 Q1927.87 136.581 1930.07 136.141 Q1932.27 135.678 1934.35 135.678 Q1939.98 135.678 1942.75 138.594 Q1945.53 141.511 1945.53 147.437 Z" fill="#000000" fill-rule="nonzero" fill-opacity="1"></path><path clip-path="url(#clip980)" d="M1972.92 149.289 Q1972.92 144.59 1970.97 141.928 Q1969.05 139.243 1965.67 139.243 Q1962.29 139.243 1960.35 141.928 Q1958.43 144.59 1958.43 149.289 Q1958.43 153.988 1960.35 156.673 Q1962.29 159.335 1965.67 159.335 Q1969.05 159.335 1970.97 156.673 Q1972.92 153.988 1972.92 149.289 M1958.43 140.238 Q1959.77 137.923 1961.8 136.812 Q1963.86 135.678 1966.71 135.678 Q1971.43 135.678 1974.37 139.428 Q1977.34 143.178 1977.34 149.289 Q1977.34 155.4 1974.37 159.15 Q1971.43 162.9 1966.71 162.9 Q1963.86 162.9 1961.8 161.789 Q1959.77 160.655 1958.43 158.34 L1958.43 162.229 L1954.14 162.229 L1954.14 126.21 L1958.43 126.21 L1958.43 140.238 Z" fill="#000000" fill-rule="nonzero" fill-opacity="1"></path><path clip-path="url(#clip980)" d="M2000.92 137.067 L2000.92 141.094 Q1999.12 140.169 1997.17 139.706 Q1995.23 139.243 1993.15 139.243 Q1989.98 139.243 1988.38 140.215 Q1986.8 141.187 1986.8 143.131 Q1986.8 144.613 1987.94 145.469 Q1989.07 146.303 1992.5 147.067 L1993.96 147.391 Q1998.49 148.363 2000.39 150.145 Q2002.31 151.905 2002.31 155.076 Q2002.31 158.687 1999.44 160.793 Q1996.6 162.9 1991.6 162.9 Q1989.51 162.9 1987.24 162.483 Q1985 162.09 1982.5 161.28 L1982.5 156.881 Q1984.86 158.108 1987.15 158.733 Q1989.44 159.335 1991.69 159.335 Q1994.7 159.335 1996.32 158.317 Q1997.94 157.275 1997.94 155.4 Q1997.94 153.664 1996.76 152.738 Q1995.6 151.812 1991.64 150.956 L1990.16 150.608 Q1986.2 149.775 1984.44 148.062 Q1982.68 146.326 1982.68 143.317 Q1982.68 139.659 1985.28 137.669 Q1987.87 135.678 1992.64 135.678 Q1995 135.678 1997.08 136.025 Q1999.17 136.372 2000.92 137.067 Z" fill="#000000" fill-rule="nonzero" fill-opacity="1"></path><path clip-path="url(#clip980)" d="M2019.14 139.289 Q2015.72 139.289 2013.73 141.974 Q2011.74 144.636 2011.74 149.289 Q2011.74 153.942 2013.7 156.627 Q2015.69 159.289 2019.14 159.289 Q2022.55 159.289 2024.54 156.604 Q2026.53 153.918 2026.53 149.289 Q2026.53 144.682 2024.54 141.997 Q2022.55 139.289 2019.14 139.289 M2019.14 135.678 Q2024.7 135.678 2027.87 139.289 Q2031.04 142.9 2031.04 149.289 Q2031.04 155.655 2027.87 159.289 Q2024.7 162.9 2019.14 162.9 Q2013.56 162.9 2010.39 159.289 Q2007.24 155.655 2007.24 149.289 Q2007.24 142.9 2010.39 139.289 Q2013.56 135.678 2019.14 135.678 Z" fill="#000000" fill-rule="nonzero" fill-opacity="1"></path><path clip-path="url(#clip980)" d="M2038.1 126.21 L2042.36 126.21 L2042.36 162.229 L2038.1 162.229 L2038.1 126.21 Z" fill="#000000" fill-rule="nonzero" fill-opacity="1"></path><path clip-path="url(#clip980)" d="M2050.83 151.997 L2050.83 136.303 L2055.09 136.303 L2055.09 151.835 Q2055.09 155.516 2056.53 157.368 Q2057.96 159.196 2060.83 159.196 Q2064.28 159.196 2066.27 156.997 Q2068.29 154.798 2068.29 151.002 L2068.29 136.303 L2072.54 136.303 L2072.54 162.229 L2068.29 162.229 L2068.29 158.247 Q2066.73 160.608 2064.67 161.766 Q2062.64 162.9 2059.93 162.9 Q2055.46 162.9 2053.15 160.122 Q2050.83 157.344 2050.83 151.997 M2061.55 135.678 L2061.55 135.678 Z" fill="#000000" fill-rule="nonzero" fill-opacity="1"></path><path clip-path="url(#clip980)" d="M2085.53 128.942 L2085.53 136.303 L2094.3 136.303 L2094.3 139.613 L2085.53 139.613 L2085.53 153.687 Q2085.53 156.858 2086.39 157.761 Q2087.27 158.664 2089.93 158.664 L2094.3 158.664 L2094.3 162.229 L2089.93 162.229 Q2085 162.229 2083.12 160.4 Q2081.25 158.548 2081.25 153.687 L2081.25 139.613 L2078.12 139.613 L2078.12 136.303 L2081.25 136.303 L2081.25 128.942 L2085.53 128.942 Z" fill="#000000" fill-rule="nonzero" fill-opacity="1"></path><path clip-path="url(#clip980)" d="M2122.08 148.201 L2122.08 150.284 L2102.5 150.284 Q2102.78 154.682 2105.14 156.997 Q2107.52 159.289 2111.76 159.289 Q2114.21 159.289 2116.5 158.687 Q2118.82 158.085 2121.09 156.881 L2121.09 160.909 Q2118.79 161.881 2116.39 162.391 Q2113.98 162.9 2111.5 162.9 Q2105.3 162.9 2101.67 159.289 Q2098.05 155.678 2098.05 149.52 Q2098.05 143.155 2101.48 139.428 Q2104.93 135.678 2110.76 135.678 Q2115.99 135.678 2119.03 139.057 Q2122.08 142.414 2122.08 148.201 M2117.82 146.951 Q2117.78 143.456 2115.85 141.372 Q2113.96 139.289 2110.81 139.289 Q2107.24 139.289 2105.09 141.303 Q2102.96 143.317 2102.64 146.974 L2117.82 146.951 Z" fill="#000000" fill-rule="nonzero" fill-opacity="1"></path><path clip-path="url(#clip980)" d="M2166.32 148.201 L2166.32 150.284 L2146.73 150.284 Q2147.01 154.682 2149.37 156.997 Q2151.76 159.289 2155.99 159.289 Q2158.45 159.289 2160.74 158.687 Q2163.05 158.085 2165.32 156.881 L2165.32 160.909 Q2163.03 161.881 2160.62 162.391 Q2158.22 162.9 2155.74 162.9 Q2149.54 162.9 2145.9 159.289 Q2142.29 155.678 2142.29 149.52 Q2142.29 143.155 2145.72 139.428 Q2149.16 135.678 2155 135.678 Q2160.23 135.678 2163.26 139.057 Q2166.32 142.414 2166.32 148.201 M2162.06 146.951 Q2162.01 143.456 2160.09 141.372 Q2158.19 139.289 2155.04 139.289 Q2151.48 139.289 2149.33 141.303 Q2147.2 143.317 2146.87 146.974 L2162.06 146.951 Z" fill="#000000" fill-rule="nonzero" fill-opacity="1"></path><path clip-path="url(#clip980)" d="M2188.33 140.284 Q2187.61 139.868 2186.76 139.682 Q2185.92 139.474 2184.91 139.474 Q2181.29 139.474 2179.35 141.835 Q2177.43 144.173 2177.43 148.571 L2177.43 162.229 L2173.15 162.229 L2173.15 136.303 L2177.43 136.303 L2177.43 140.331 Q2178.77 137.969 2180.92 136.835 Q2183.08 135.678 2186.16 135.678 Q2186.6 135.678 2187.13 135.747 Q2187.66 135.794 2188.31 135.909 L2188.33 140.284 Z" fill="#000000" fill-rule="nonzero" fill-opacity="1"></path><path clip-path="url(#clip980)" d="M2206.99 140.284 Q2206.27 139.868 2205.41 139.682 Q2204.58 139.474 2203.56 139.474 Q2199.95 139.474 2198.01 141.835 Q2196.09 144.173 2196.09 148.571 L2196.09 162.229 L2191.8 162.229 L2191.8 136.303 L2196.09 136.303 L2196.09 140.331 Q2197.43 137.969 2199.58 136.835 Q2201.73 135.678 2204.81 135.678 Q2205.25 135.678 2205.78 135.747 Q2206.32 135.794 2206.97 135.909 L2206.99 140.284 Z" fill="#000000" fill-rule="nonzero" fill-opacity="1"></path><path clip-path="url(#clip980)" d="M2220.46 139.289 Q2217.03 139.289 2215.04 141.974 Q2213.05 144.636 2213.05 149.289 Q2213.05 153.942 2215.02 156.627 Q2217.01 159.289 2220.46 159.289 Q2223.86 159.289 2225.85 156.604 Q2227.85 153.918 2227.85 149.289 Q2227.85 144.682 2225.85 141.997 Q2223.86 139.289 2220.46 139.289 M2220.46 135.678 Q2226.02 135.678 2229.19 139.289 Q2232.36 142.9 2232.36 149.289 Q2232.36 155.655 2229.19 159.289 Q2226.02 162.9 2220.46 162.9 Q2214.88 162.9 2211.71 159.289 Q2208.56 155.655 2208.56 149.289 Q2208.56 142.9 2211.71 139.289 Q2214.88 135.678 2220.46 135.678 Z" fill="#000000" fill-rule="nonzero" fill-opacity="1"></path><path clip-path="url(#clip980)" d="M2254.44 140.284 Q2253.72 139.868 2252.87 139.682 Q2252.03 139.474 2251.02 139.474 Q2247.41 139.474 2245.46 141.835 Q2243.54 144.173 2243.54 148.571 L2243.54 162.229 L2239.26 162.229 L2239.26 136.303 L2243.54 136.303 L2243.54 140.331 Q2244.88 137.969 2247.03 136.835 Q2249.19 135.678 2252.27 135.678 Q2252.71 135.678 2253.24 135.747 Q2253.77 135.794 2254.42 135.909 L2254.44 140.284 Z" fill="#000000" fill-rule="nonzero" fill-opacity="1"></path></svg>